<?xml version="1.0" standalone="no"?>
<!DOCTYPE svg PUBLIC "-//W3C//DTD SVG 1.1//EN" "http://www.w3.org/Graphics/SVG/1.1/DTD/svg11.dtd" >
<svg xmlns="http://www.w3.org/2000/svg" xmlns:xlink="http://www.w3.org/1999/xlink" version="1.1">
<metadata></metadata>
<defs>
<font id="rhyderregular" horiz-adv-x="458" >
<font-face units-per-em="2048" ascent="1434" descent="-614" />
<missing-glyph horiz-adv-x="512" />
<glyph horiz-adv-x="0" />
<glyph horiz-adv-x="682" />
<glyph unicode=" "  horiz-adv-x="512" />
<glyph unicode="&#x09;" horiz-adv-x="512" />
<glyph unicode="&#xa0;" horiz-adv-x="512" />
<glyph unicode="!" horiz-adv-x="333" d="M47 20v1035q0 8 6 14t15 6h163q8 0 14.5 -6.5t6.5 -13.5v-1035q0 -7 -6.5 -13.5t-14.5 -6.5h-163q-7 0 -13 6.5t-8 13.5zM47 -172v-162q0 -8 6 -13t15 -5h159q8 0 14.5 5.5t6.5 12.5v162q0 7 -6.5 13.5t-14.5 6.5h-159q-9 0 -15 -6t-6 -14z" />
<glyph unicode="&#x22;" />
<glyph unicode="#" horiz-adv-x="1112" d="M-43 358v166q0 21 20 21h244l105 248h-195q-20 0 -20 20v166q0 20 20 20h281l133 318q3 14 18 14h172q9 0 15 -6t6 -14q-53 -134 -125 -312h180l131 318q7 14 21 14h161q8 0 14.5 -6.5t6.5 -13.5q-53 -134 -125 -312h151q8 0 14.5 -5.5t6.5 -14.5v-166q0 -9 -6.5 -14.5 t-14.5 -5.5h-233l-98 -248h176q8 0 14 -6t6 -15v-166q0 -8 -5.5 -14t-14.5 -6h-260l-129 -324q-7 -14 -21 -14h-178q-13 0 -20 14l133 324h-181l-131 -324q-7 -14 -20 -14h-189q-13 0 -20 14l135 324h-158q-9 0 -14.5 6t-5.5 14zM444 545h183l100 248h-180z" />
<glyph unicode="$" horiz-adv-x="958" d="M78 356q0 21 20 21h164q8 0 14.5 -6t6.5 -13q6 -55 38 -100t82 -68v453l-71 33q-92 43 -147.5 129.5t-55.5 191.5q0 125 77.5 221.5t196.5 124.5v70q0 9 6 15t15 6h139q8 0 14.5 -6t6.5 -15v-70q116 -28 189 -116t73 -209q0 -8 -6 -14.5t-15 -6.5h-163q-8 0 -14.5 6 t-6.5 13q-9 61 -57 100v-334l82 -39q105 -50 168 -148t63 -218q0 -144 -88.5 -254t-224.5 -141v-72q0 -9 -6.5 -15t-14.5 -6h-139q-9 0 -15 6t-6 15v70q-136 26 -227.5 131.5t-97.5 244.5zM334 997q0 -84 69 -127v256q-69 -47 -69 -129zM584 197q50 27 79 74.5t29 105.5 t-29 105.5t-79 74.5v-360z" />
<glyph unicode="%" horiz-adv-x="1214" d="M2 999q0 100 71 171t171 71t170.5 -71t70.5 -171q0 -103 -67 -172t-174 -69q-100 0 -171 70.5t-71 170.5zM141 999q0 -43 30 -72.5t73 -29.5t72.5 29.5t29.5 72.5t-29.5 73t-72.5 30t-73 -30t-30 -73zM219 14l543 1303q7 14 20 14h162q8 0 14.5 -6.5t6.5 -13.5 q0 -1 -124 -308t-255 -630t-146 -359q-4 -14 -18 -14h-184q-16 0 -19 14zM682 242q0 100 71 170.5t171 70.5t170.5 -70.5t70.5 -170.5q0 -103 -67 -172.5t-174 -69.5q-100 0 -171 71t-71 171zM821 242q0 -43 30 -73t73 -30t72.5 30t29.5 73t-29.5 72.5t-72.5 29.5t-73 -29.5 t-30 -72.5z" />
<glyph unicode="&#x26;" horiz-adv-x="1187" d="M2 422q0 99 42 189t116 155q-80 82 -102 112q-56 77 -56 175q0 129 91 219t220 90q128 0 219 -90t91 -219h-211q0 41 -29.5 70.5t-69.5 29.5q-41 0 -70.5 -29.5t-29.5 -70.5t29 -70l948 -948q9 -9 4 -22t-18 -13h-256q-8 0 -33.5 24t-58.5 60l-33 35q-64 -72 -152.5 -111 t-185.5 -39q-188 0 -321.5 133t-133.5 320zM213 422q0 -101 71.5 -172.5t172.5 -71.5q116 0 190 90l-340 348q-94 -75 -94 -194z" />
<glyph unicode="'" horiz-adv-x="393" d="M82 795v290q0 21 20 21h160q8 0 14.5 -6t6.5 -15v-290q0 -9 -6.5 -15t-14.5 -6h-160q-20 0 -20 21z" />
<glyph unicode="(" horiz-adv-x="610" d="M160 664q0 189 50 349.5t136.5 253.5t188.5 93q8 0 14 -6t6 -15v-172q0 -9 -6 -14.5t-14 -5.5q-65 0 -112.5 -145t-47.5 -338t47.5 -338.5t112.5 -145.5q8 0 14 -5.5t6 -14.5v-170q0 -9 -6 -15t-14 -6q-102 0 -188.5 92.5t-136.5 253t-50 349.5z" />
<glyph unicode=")" horiz-adv-x="616" d="M160 -10v170q0 9 6 14.5t14 5.5q44 0 81.5 68t59 179t21.5 237t-21.5 237t-59 178.5t-81.5 67.5q-8 0 -14 5.5t-6 14.5v172q0 9 6 15t14 6q102 0 188.5 -93t136.5 -253.5t50 -349.5t-50 -349.5t-136.5 -253t-188.5 -92.5q-8 0 -14 6t-6 15z" />
<glyph unicode="," horiz-adv-x="356" d="M0 -174l82 354q0 21 20 21h160q8 0 14.5 -6t6.5 -15l-82 -354q0 -9 -6.5 -15t-14.5 -6h-160q-20 0 -20 21z" />
<glyph unicode="-" horiz-adv-x="872" d="M104 248v166q0 20 21 20h649q21 0 21 -20v-166q0 -9 -6 -15t-15 -6h-649q-9 0 -15 6t-6 15z" />
<glyph unicode="." horiz-adv-x="364" d="M82 20v160q0 21 20 21h160q8 0 14.5 -6t6.5 -15v-160q0 -9 -6.5 -14.5t-14.5 -5.5h-160q-20 0 -20 20z" />
<glyph unicode="/" horiz-adv-x="991" d="M219 14l543 1303q7 14 20 14h162q8 0 14.5 -6.5t6.5 -13.5q0 -1 -122.5 -308t-252 -630t-144.5 -359q-4 -14 -18 -14h-190q-16 0 -19 14z" />
<glyph unicode="0" horiz-adv-x="1003" d="M129 664q0 189 49.5 349.5t135.5 253.5t188 93t188.5 -93t136.5 -253.5t50 -349.5t-50 -349.5t-136.5 -253t-188.5 -92.5t-188 93t-135.5 253t-49.5 349zM342 664q0 -193 47.5 -338.5t112.5 -145.5q42 0 80 75t59 186.5t21 222.5t-21 222t-59 186t-80 75 q-65 0 -112.5 -145t-47.5 -338z" />
<glyph unicode="1" horiz-adv-x="1003" d="M313 1147v162q0 20 21 20h336q20 0 20 -20v-1289q0 -20 -20 -20h-164q-8 0 -14.5 5.5t-6.5 14.5v1086q0 8 -5.5 14t-14.5 6h-131q-9 0 -15 6t-6 15z" />
<glyph unicode="2" horiz-adv-x="1003" d="M72 23v184q0 10 4 14l588 553q61 58 61 154q0 91 -64 155t-155 64q-98 0 -157.5 -51t-59.5 -146q0 -7 -7.5 -12.5t-15.5 -5.5h-172q-9 0 -15.5 5.5t-6.5 14.5q0 108 62 203.5t161.5 151t206.5 55.5q180 0 306 -125.5t126 -304.5q0 -85 -29.5 -162.5t-87.5 -132.5 l-409 -385q-10 -9 -4 -23t20 -14h487q9 0 15 -6t6 -14v-172q0 -9 -6 -16t-15 -7h-819q-9 0 -14.5 7t-5.5 16z" />
<glyph unicode="3" horiz-adv-x="1003" d="M147 20v164q0 8 6 14.5t15 6.5h281q85 0 144.5 60t59.5 145t-59.5 144.5t-144.5 59.5h-279q-20 0 -20 21v162q0 20 20 20h279q63 0 108 46t45 110q0 63 -45 108t-108 45h-279q-9 0 -14.5 6.5t-5.5 14.5v164q0 8 5.5 14t14.5 6h279q148 0 253 -105t105 -253 q0 -142 -98 -248q69 -59 108 -142t39 -173q0 -169 -119.5 -289.5t-287.5 -120.5h-281q-9 0 -15 6t-6 14z" />
<glyph unicode="4" horiz-adv-x="1003" d="M117 498v86q0 21 12 37l541 694q12 16 32 16h164q9 0 15 -6t6 -14v-1291q0 -20 -21 -20h-164q-8 0 -14 5.5t-6 14.5v437q0 20 -20 20h-525q-7 0 -13.5 6.5t-6.5 14.5zM450 687q2 -5 11 -5h201q20 0 20 20v265q0 6 -1.5 8.5t-4.5 1.5t-6 -6l-217 -273q-5 -6 -3 -11z" />
<glyph unicode="5" horiz-adv-x="1003" d="M90 219q-5 9 1 19t18 10h204q7 0 15 -4q31 -26 47 -37t48 -21t75 -10q87 0 148 63t61 175q0 110 -60 173.5t-149 63.5q-43 0 -75 -10t-48.5 -21t-46.5 -36q-8 -4 -15 -4h-178q-8 0 -14 5.5t-6 14.5v711q0 7 6.5 13.5t13.5 6.5h699q9 0 14.5 -6t5.5 -14v-166 q0 -21 -20 -21h-492q-8 0 -14 -6t-6 -14v-256q0 -11 9 -17.5t19 -3.5q9 3 25 9t25 9t24 6.5t33 5t41 1.5q187 0 303.5 -123t116.5 -321q0 -210 -115 -326.5t-305 -116.5q-149 0 -251.5 66.5t-156.5 181.5z" />
<glyph unicode="6" horiz-adv-x="1003" d="M100 401q0 122 72 228l477 694q8 8 17 8h196q12 0 18 -11t-1 -20l-344 -499q156 -12 262 -127t106 -273q0 -166 -117.5 -283.5t-283.5 -117.5t-284 117.5t-118 283.5zM301 401q0 -83 59 -141.5t142 -58.5t141.5 58.5t58.5 141.5t-58.5 142t-141.5 59t-142 -59t-59 -142z " />
<glyph unicode="7" horiz-adv-x="1003" d="M152 20l403 1086q0 9 -6 14.5t-14 5.5h-363q-20 0 -20 21v162q0 20 20 20h662q20 0 20 -20l-498 -1289q-4 -12 -8 -16t-12 -4h-164q-10 0 -16.5 6t-3.5 14z" />
<glyph unicode="8" horiz-adv-x="1003" d="M92 379q0 105 50.5 195t136.5 147q-63 51 -99.5 123.5t-36.5 156.5q0 148 105 252.5t254 104.5t253.5 -104.5t104.5 -252.5q0 -85 -35.5 -157.5t-99.5 -122.5q87 -57 137.5 -147t50.5 -195q0 -170 -120 -289t-291 -119q-170 0 -290 119t-120 289zM297 379 q0 -86 60 -145.5t145 -59.5t145 59.5t60 145.5q0 85 -60 144t-145 59t-145 -59t-60 -144zM344 997q0 -66 46 -111.5t112 -45.5t113 45.5t47 111.5t-47 112t-113 46t-112 -46t-46 -112z" />
<glyph unicode="9" horiz-adv-x="1003" d="M100 930q0 166 118 283.5t284 117.5t283.5 -117.5t117.5 -283.5q0 -122 -72 -228l-477 -694q-4 -8 -16 -8h-197q-12 0 -17.5 11t1.5 20l344 499q-155 12 -262 127.5t-107 272.5zM303 930q0 -83 58 -142t141 -59q84 0 142 58.5t58 142.5q0 83 -58.5 141.5t-141.5 58.5 t-141 -58.5t-58 -141.5z" />
<glyph unicode=":" horiz-adv-x="348" d="M82 20v160q0 21 20 21h160q8 0 14.5 -6t6.5 -15v-160q0 -9 -6.5 -14.5t-14.5 -5.5h-160q-20 0 -20 20zM82 502v160q0 20 20 20h160q8 0 14.5 -5.5t6.5 -14.5v-160q0 -9 -6.5 -15t-14.5 -6h-160q-20 0 -20 21z" />
<glyph unicode=";" horiz-adv-x="339" d="M0 -174l82 354q0 21 20 21h160q8 0 14.5 -6t6.5 -15l-82 -354q0 -9 -6.5 -15t-14.5 -6h-160q-20 0 -20 21zM82 502v160q0 20 20 20h160q8 0 14.5 -5.5t6.5 -14.5v-160q0 -9 -6.5 -15t-14.5 -6h-160q-20 0 -20 21z" />
<glyph unicode="&#x3c;" horiz-adv-x="737" d="M262 268v154q0 11 4 15.5t17 11.5l356 204q8 0 14 -5.5t6 -12.5v-160q0 -2 -0.5 -4t-1 -3.5t-2 -3l-2.5 -2.5t-3 -2.5t-3.5 -2t-4 -2t-3.5 -2.5q-38 -22 -82.5 -44.5t-70.5 -34.5l-25 -12q-10 -6 -9.5 -15.5t9.5 -14.5q90 -43 178 -94q20 -12 20 -23v-158 q0 -7 -6.5 -13.5t-13.5 -6.5l-356 205q-1 1 -4.5 3t-4.5 2.5t-3.5 2t-3.5 2.5t-2 3t-1.5 3.5t-1 4t-0.5 5.5z" />
<glyph unicode="=" horiz-adv-x="782" d="M43 92v166q0 21 20 21h650q20 0 20 -21v-166q0 -8 -5.5 -14t-14.5 -6h-650q-9 0 -14.5 6t-5.5 14zM43 457v166q0 20 20 20h650q20 0 20 -20v-166q0 -21 -20 -21h-650q-20 0 -20 21z" />
<glyph unicode="&#x3e;" horiz-adv-x="694" d="M262 57v158q0 2 0.5 4.5t2 4.5t2.5 3t3.5 3t3.5 2.5t4.5 3t4.5 2.5q39 23 83.5 46.5t69.5 35.5l25 12q9 5 9.5 14.5t-9.5 15.5q-92 42 -178 91q-1 1 -5.5 3.5t-6 3.5t-4.5 3.5t-4 5.5t-1 6v160q0 8 6 13t15 5l356 -204q7 -4 9.5 -5.5t5.5 -5t4 -7t1 -9.5v-154 q0 -6 -0.5 -9.5t-4.5 -7t-5.5 -4t-9.5 -5.5l-356 -205q-9 0 -15 6t-6 14z" />
<glyph unicode="?" horiz-adv-x="829" d="M47 756q0 146 104 241t255 95q150 0 262 -106t112 -253q0 -103 -62 -188.5t-157 -130.5q-53 -25 -85 -74.5t-32 -110.5v-209q0 -20 -20 -20h-164q-20 0 -20 20v209q0 120 63.5 218.5t169.5 148.5q39 19 62.5 56.5t23.5 82.5q0 63 -44.5 107.5t-108.5 44.5 q-58 0 -101 -38.5t-51 -94.5q-4 -19 -21 -19h-165q-8 0 -14.5 6t-6.5 15zM233 -172q0 8 6 14t15 6h160q8 0 14 -6t6 -14v-162q0 -7 -6 -12.5t-14 -5.5h-160q-9 0 -15 5t-6 13v162zM233 -172q0 8 6 14t15 6h160q8 0 14 -6t6 -14v-162q0 -7 -6 -12.5t-14 -5.5h-160q-9 0 -15 5 t-6 13v162z" />
<glyph unicode="@" horiz-adv-x="1486" d="M0 668q0 142 57 271t153 222t228.5 148t278.5 55t278.5 -55t228.5 -148t153 -222t57 -271q0 -125 -44 -241t-121 -205t-184 -151t-229 -85v381q-69 -29 -139 -29q-140 0 -239 97t-99 233q0 135 99 231t239 96t239 -96t99 -231v-412q95 73 148.5 180.5t53.5 231.5 q0 143 -72 264t-196.5 191.5t-271.5 70.5t-271.5 -70.5t-197 -191.5t-72.5 -264t72.5 -264.5t197 -192t271.5 -70.5v-170q-146 0 -278.5 55t-228.5 148.5t-153 222.5t-57 271zM578 668q0 -57 40.5 -97.5t98.5 -40.5t98.5 40.5t40.5 97.5q0 56 -40.5 95.5t-98.5 39.5 t-98.5 -39.5t-40.5 -95.5z" />
<glyph unicode="A" horiz-adv-x="1122" d="M72 20q0 5 2 7l395 1290q7 14 20 14h191q14 0 18 -14l398 -1290q0 -1 1 -3.5t1 -3.5q0 -9 -6.5 -14.5t-14.5 -5.5h-164q-15 0 -18 14l-117 381q-8 15 -20 15h-346q-17 0 -21 -15l-117 -381q-4 -14 -20 -14h-162q-8 0 -14 5.5t-6 14.5zM467 641q-3 -8 1 -16t13 -11h6h195 q20 0 20 21v6l-98 317q-3 11 -14 15q-8 3 -16 -1.5t-9 -13.5z" />
<glyph unicode="B" horiz-adv-x="862" d="M76 20v1291q0 7 6 13.5t14 6.5h289q148 0 253 -105t105 -253q0 -145 -98 -248q71 -59 110.5 -142t39.5 -173q0 -169 -120.5 -289.5t-289.5 -120.5h-289q-8 0 -14 6t-6 14zM281 225q0 -7 6.5 -13.5t13.5 -6.5h84q85 0 145 60t60 145t-60 144.5t-145 59.5h-84 q-7 0 -13.5 -6t-6.5 -14v-369zM281 838q0 -8 6.5 -14.5t13.5 -6.5h84q63 0 108.5 46t45.5 110q0 63 -45.5 108t-108.5 45h-84q-7 0 -13.5 -6t-6.5 -14v-268z" />
<glyph unicode="C" horiz-adv-x="854" d="M51 319v693q0 146 114.5 248t276.5 102q156 0 270.5 -95.5t123.5 -232.5q0 -18 -23 -22h-180q-19 0 -23 18q-8 56 -55 94.5t-111 38.5q-70 0 -119 -43.5t-49 -105.5v-695q0 -63 49 -107t119 -44q64 0 111 38.5t55 94.5q4 18 23 18h180q9 0 16 -6t7 -14q-9 -138 -123 -233 t-271 -95q-162 0 -276.5 102t-114.5 246z" />
<glyph unicode="D" horiz-adv-x="972" d="M78 20v1291q0 7 6 13.5t14 6.5h164q181 0 334.5 -89t242.5 -242t89 -334t-89 -334t-242.5 -242.5t-334.5 -89.5h-164q-8 0 -14 6t-6 14zM283 227q0 -9 6 -14.5t14 -5.5q47 0 113 24q138 50 222.5 169.5t84.5 265.5t-84 265t-221 169q-66 24 -113 24q-9 0 -15.5 -5.5 t-6.5 -14.5v-877z" />
<glyph unicode="E" horiz-adv-x="800" d="M59 20v1289q0 9 6.5 14.5t14.5 5.5h72h92h499q21 0 21 -20v-162q0 -9 -6 -15t-15 -6h-458q-9 0 -15 -6t-6 -14l2 -502q0 -20 21 -20h336q20 0 20 -21v-164q0 -8 -5.5 -14t-14.5 -6h-336q-9 0 -15 -6t-6 -15l-2 -133q0 -20 21 -20h458q9 0 15 -6.5t6 -14.5v-164 q0 -20 -21 -20h-499h-92h-72q-21 8 -21 20z" />
<glyph unicode="F" horiz-adv-x="706" d="M51 20v1289q0 9 6.5 14.5t14.5 5.5h71h93h499q21 0 21 -20v-162q0 -9 -6 -15t-15 -6h-459q-8 0 -14 -6t-6 -14v-502q0 -9 6 -14.5t14 -5.5h336q9 0 15 -6t6 -15v-164q0 -8 -6 -14t-15 -6h-336q-8 0 -14 -6t-6 -15v-338q0 -20 -20 -20h-164q-21 8 -21 20z" />
<glyph unicode="G" horiz-adv-x="817" d="M74 313v707q0 141 100.5 241.5t241.5 100.5q136 0 235.5 -93.5t108.5 -228.5q0 -8 -6 -14t-15 -6h-157q-19 0 -19 16q-8 56 -49.5 93.5t-97.5 37.5q-60 0 -103 -43t-43 -104v-707q0 -61 43 -104t103 -43q59 0 103 37t44 92v78q0 18 -18 18h-86q-17 0 -21 19v159 q0 19 21 19h280q21 -4 21 -21v-274q0 -136 -102.5 -228t-241.5 -92q-141 0 -241.5 99.5t-100.5 240.5z" />
<glyph unicode="H" horiz-adv-x="913" d="M84 20v1289q0 20 20 20h164q8 0 14.5 -5.5t6.5 -14.5v-705q0 -8 5.5 -14t14.5 -6h297q8 0 14.5 6.5t6.5 13.5v705q0 20 20 20h164q8 0 14 -5.5t6 -14.5v-1289q0 -9 -6 -14.5t-14 -5.5h-164q-20 0 -20 20v338q0 8 -6.5 14.5t-14.5 6.5h-297q-9 0 -14.5 -6.5t-5.5 -14.5 v-338q0 -9 -6.5 -14.5t-14.5 -5.5h-164q-20 0 -20 20z" />
<glyph unicode="I" horiz-adv-x="333" d="M47 20v1291q0 8 6 14t15 6h163q8 0 14.5 -6.5t6.5 -13.5v-1291q0 -7 -6.5 -13.5t-14.5 -6.5h-163q-7 0 -13 6.5t-8 13.5z" />
<glyph unicode="J" horiz-adv-x="878" d="M82 307q0 21 20 21h164q10 0 15.5 -4t5.5 -8v-5q8 -59 51.5 -98t101.5 -39q64 0 109 45.5t45 108.5v983q0 9 6 14.5t14 5.5h164q21 0 21 -20v-983q0 -148 -105 -252.5t-254 -104.5q-143 0 -248.5 98t-109.5 238z" />
<glyph unicode="K" horiz-adv-x="849" d="M68 20v1289q0 9 6 14.5t14 5.5h164q20 0 20 -20v-514q0 -7 7 -14t14 -7q11 0 18 10l293 535q7 10 19 10h157q9 0 15 -6t6 -14q0 -19 -161 -297t-161 -297t162 -347.5t162 -347.5q0 -8 -6 -14t-15 -6h-159q-13 0 -19 12l-293 621q-4 12 -18 12q-8 0 -14.5 -6.5t-6.5 -13.5 v-605q0 -8 -5.5 -14t-14.5 -6h-164q-8 0 -14 6t-6 14z" />
<glyph unicode="L" horiz-adv-x="763" d="M49 18v1291q0 9 6.5 14.5t14.5 5.5h163q8 0 14.5 -5.5t6.5 -14.5v-1086q0 -7 6 -13.5t14 -6.5h459q9 0 15 -6t6 -15v-164q0 -8 -6 -13t-15 -5h-663q-8 0 -14.5 5.5t-6.5 12.5z" />
<glyph unicode="M" horiz-adv-x="1458" d="M72 20q0 5 2 7l395 1288q6 14 20 14h189q17 0 20 -14l35 -111q1 -9 9 -13t16 -1q11 4 14 14l35 111q3 14 18 14h191q15 0 18 -14l398 -1288q0 -1 1 -3.5t1 -3.5q0 -9 -6.5 -14.5t-14.5 -5.5h-162q-17 0 -20 14l-291 944q-4 12 -12 15q-20 3 -27 -15l-129 -415 q-3 -11 -14 -15q-8 -3 -16 1.5t-9 13.5l-129 415q-4 12 -14 15q-8 2 -16 -3t-9 -12l-291 -944q-7 -14 -20 -14h-162q-8 0 -14 5.5t-6 14.5z" />
<glyph unicode="N" horiz-adv-x="892" d="M82 20v1291q0 9 6 14.5t14 5.5h172q13 0 19 -12l274 -678q3 -7 11.5 -10t15.5 0q12 3 12 18v662q0 9 6.5 14.5t14.5 5.5h164q20 0 20 -20v-1291q0 -20 -20 -20h-170q-16 0 -19 12l-274 678q-3 7 -11.5 10t-15.5 0q-14 -4 -14 -18v-662q0 -20 -21 -20h-164q-8 0 -14 5.5 t-6 14.5z" />
<glyph unicode="O" horiz-adv-x="874" d="M80 328v676q0 148 105 253t253 105t253.5 -105t105.5 -253v-676q0 -148 -105.5 -252.5t-253.5 -104.5t-253 104.5t-105 252.5zM285 328q0 -63 45 -108.5t108 -45.5t108.5 45.5t45.5 108.5v676q0 63 -45.5 108t-108.5 45t-108 -45t-45 -108v-676z" />
<glyph unicode="P" horiz-adv-x="821" d="M59 20v1289q0 20 21 20h287q169 0 289 -119t120 -288t-120 -289.5t-289 -120.5h-82q-21 0 -21 -20v-472q0 -9 -6 -14.5t-14 -5.5h-164q-21 0 -21 20zM264 737q0 -8 6 -14t15 -6h82q85 0 144.5 60t59.5 145t-59.5 144.5t-144.5 59.5h-82q-9 0 -15 -6t-6 -14v-369z" />
<glyph unicode="Q" horiz-adv-x="964" d="M72 328v678q0 149 105.5 253.5t254.5 104.5q148 0 253.5 -104.5t105.5 -253.5v-678q0 -7 -1.5 -22t-1.5 -23l132 -131q6 -6 6 -15t-6 -14l-115 -117q-6 -4 -15.5 -4t-15.5 4l-78 80q-105 -115 -264 -115q-150 0 -255 104t-105 253zM276 328q0 -63 46 -108.5t110 -45.5 q72 0 119 57l-182 181q-6 6 -6 15t6 13l116 117q6 6 14.5 6t14.5 -6l72 -72v521q0 63 -45.5 108t-108.5 45q-64 0 -110 -45t-46 -108v-678z" />
<glyph unicode="R" horiz-adv-x="878" d="M78 20v1291q0 7 6 13.5t14 6.5h287q101 0 194.5 -49.5t155.5 -145.5t62 -216q0 -87 -41.5 -174.5t-98.5 -131.5q65 -53 102.5 -136t37.5 -175v-283q0 -20 -21 -20h-164q-8 0 -14 5.5t-6 14.5v281q0 34 -11.5 69.5t-35 68t-65.5 53t-95 20.5h-82q-8 0 -14 -5.5t-6 -14.5 v-472q0 -20 -21 -20h-164q-8 0 -14 6t-6 14zM283 737q0 -7 6.5 -13.5t13.5 -6.5h84q85 0 144 60t59 145t-59 144.5t-144 59.5h-84q-20 -10 -20 -20v-369z" />
<glyph unicode="S" horiz-adv-x="958" d="M78 356q0 21 20 21h164q8 0 14.5 -6t6.5 -13q8 -77 66.5 -131.5t137.5 -54.5q85 0 145 60t60 145q0 59 -32 109t-85 75l-243 115q-92 43 -147.5 129.5t-55.5 191.5q0 148 104.5 252.5t253.5 104.5q151 0 255 -95t104 -241q0 -8 -6 -14.5t-15 -6.5h-163q-8 0 -14.5 6 t-6.5 13q-8 56 -52 95.5t-102 39.5q-64 0 -108.5 -45.5t-44.5 -108.5q0 -44 24 -81t64 -56l244 -117q105 -50 168 -148t63 -218q0 -169 -120 -287.5t-290 -118.5q-164 0 -282.5 112t-126.5 273z" />
<glyph unicode="T" horiz-adv-x="983" d="M53 1145v164q0 8 6 14t15 6h958q9 0 15 -6t6 -14v-164q0 -8 -6 -14.5t-15 -6.5h-356q-8 0 -14.5 -6.5t-6.5 -13.5v-1086q0 -7 -6 -12.5t-14 -5.5h-164q-8 0 -14 5.5t-6 12.5v1086q0 7 -6.5 13.5t-14.5 6.5h-356q-9 0 -15 6.5t-6 14.5z" />
<glyph unicode="U" horiz-adv-x="876" d="M82 328v983q0 8 5.5 14t14.5 6h164q8 0 14.5 -6.5t6.5 -13.5v-983q0 -63 45 -108.5t108 -45.5t108.5 45.5t45.5 108.5v983q0 8 5.5 14t14.5 6h164q8 0 14.5 -6.5t6.5 -13.5v-983q0 -148 -105.5 -252.5t-253.5 -104.5q-149 0 -253.5 104.5t-104.5 252.5z" />
<glyph unicode="V" horiz-adv-x="1126" d="M66 1311q0 7 6 13.5t14 6.5h162q16 0 20 -14l291 -944q3 -15 21 -15q14 0 18 15l291 944q3 14 20 14h162q8 0 14.5 -6.5t6.5 -13.5q0 -2 -92.5 -308t-192.5 -630t-115 -359q-4 -14 -18 -14h-191q-15 0 -18 14q-15 35 -114.5 359t-192 630t-92.5 308z" />
<glyph unicode="W" horiz-adv-x="1536" d="M66 1311q0 9 6 14.5t14 5.5h162q16 0 20 -14l291 -944q1 -9 9 -13.5t16 -1.5q11 4 14 15l80 262q3 6 0 12l-201 658q-2 2 -2 6q0 9 6.5 14.5t14.5 5.5h161q17 0 21 -14l86 -279q1 -9 8.5 -13t15.5 -1q13 4 15 14l86 279q3 14 18 14h164q8 0 14.5 -5.5t6.5 -14.5 q0 -1 -1 -3t-1 -3l-203 -658v-12l82 -262q1 -9 8.5 -13.5t15.5 -1.5q12 4 15 15l290 944q4 14 19 14h164q8 0 14 -5.5t6 -14.5q0 -1 -1 -3t-1 -3l-397 -1291q-4 -14 -19 -14h-190q-15 0 -19 14l-71 230q-7 21 -27 14q-9 -3 -12 -14l-72 -230q-4 -14 -18 -14h-191 q-15 0 -18 14l-397 1291q-2 2 -2 6z" />
<glyph unicode="X" horiz-adv-x="1138" d="M68 27l368 628q7 11 0 21l-368 629q-3 9 3 17.5t15 8.5h162q11 0 20 -14l293 -471q5 -10 17 -10t18 10l293 471q9 14 20 14h162q9 0 15.5 -8.5t3.5 -17.5l-369 -629q-7 -10 0 -21l369 -628q3 -9 -3.5 -18t-15.5 -9h-162q-11 0 -20 14l-293 471q-6 9 -18 9.5t-17 -9.5 l-293 -471q-9 -14 -20 -14h-162q-9 0 -15 9t-3 18z" />
<glyph unicode="Y" horiz-adv-x="1009" d="M57 1305q-3 9 4 17.5t17 8.5h186q18 0 25 -14l262 -408q6 -10 17.5 -9.5t17.5 9.5l262 408q9 14 20 14h193q10 0 15.5 -8.5t2.5 -17.5l-405 -656q-4 -4 -4 -10v-619q0 -20 -21 -20h-164q-8 0 -14 5.5t-6 14.5v619q0 6 -2 10z" />
<glyph unicode="Z" horiz-adv-x="806" d="M68 20v179q0 8 2 10l456 889q5 9 -1.5 18.5t-16.5 9.5h-420q-9 0 -14.5 6.5t-5.5 14.5v164q0 20 20 20h664q8 0 14 -5.5t6 -14.5v-178q0 -2 -1 -6t-1 -5l-459 -889q-4 -9 2 -18.5t17 -9.5h422q7 0 13.5 -6.5t6.5 -14.5v-164q0 -9 -6 -14.5t-14 -5.5h-664q-20 0 -20 20z " />
<glyph unicode="[" horiz-adv-x="434" d="M47 20v164v963v164q0 8 6 14t15 6h163h121q8 0 14.5 -6.5t6.5 -13.5v-164q0 -7 -6.5 -14t-14.5 -7h-102v-921h102q8 0 14.5 -6.5t6.5 -14.5v-164q0 -7 -6.5 -13.5t-14.5 -6.5h-121h-163q-9 0 -15 6t-6 14z" />
<glyph unicode="\" horiz-adv-x="1001" d="M219 1311q0 8 6 14t15 6h161q15 0 19 -14l545 -1303q-7 -14 -21 -14h-188q-14 0 -21 14q-516 1295 -516 1297z" />
<glyph unicode="]" horiz-adv-x="454" d="M45 20v164q0 8 6.5 14.5t14.5 6.5h102v921h-102q-8 0 -14.5 7t-6.5 14v164q0 7 6.5 13.5t14.5 6.5h122h164q8 0 14.5 -6.5t6.5 -13.5v-164v-963v-164q0 -7 -6.5 -13.5t-14.5 -6.5h-164h-122q-8 0 -14.5 6.5t-6.5 13.5z" />
<glyph unicode="^" horiz-adv-x="835" d="M279 1454l204 356q5 9 7 12t7 6t13 3h154q8 0 13 -3.5t6 -5t7 -12.5l205 -356q0 -20 -21 -20h-157q-11 0 -23 20q-22 38 -44.5 82.5t-33.5 69.5l-12 26q-6 10 -16 9.5t-15 -9.5q-43 -90 -94 -178q-1 -1 -2 -4q-11 -15 -20 -16h-158q-20 0 -20 20z" />
<glyph unicode="_" />
<glyph unicode="`" horiz-adv-x="645" d="M408 1810q0 9 6 15t14 6h160q20 0 20 -21l82 -356q0 -20 -20 -20h-160q-8 0 -14.5 5.5t-6.5 14.5z" />
<glyph unicode="a" horiz-adv-x="917" d="M94 342q0 154 109 263.5t264 109.5q154 0 262.5 -109.5t108.5 -263.5v-322q0 -20 -21 -20h-160q-4 0 -9.5 6.5t-8.5 5.5q-7 -2 -32 -10.5t-36 -12t-31.5 -9t-38 -7.5t-34.5 -2q-155 0 -264 108.5t-109 262.5zM295 342q0 -71 50 -120.5t122 -49.5q71 0 120.5 50t49.5 120 q0 71 -50 121.5t-120 50.5q-72 0 -122 -50.5t-50 -121.5z" />
<glyph unicode="b" horiz-adv-x="882" d="M84 20v1393q0 9 5 15t13 6h162q8 0 14.5 -6t6.5 -15v-741q81 43 170 43q155 0 263.5 -109.5t108.5 -263.5t-108.5 -262.5t-263.5 -108.5q-88 0 -172 41q-3 -12 -19 -12h-162q-18 0 -18 20zM285 342q0 -71 50 -121.5t120 -50.5q71 0 121.5 51t50.5 121t-50.5 120 t-121.5 50t-120.5 -50t-49.5 -120z" />
<glyph unicode="c" horiz-adv-x="669" d="M76 340q0 154 109 262.5t264 108.5q121 0 219 -72q2 0 2 -2q14 -15 0 -29l-117 -114q-12 -12 -23 -7q-41 23 -81 23q-72 0 -122.5 -49.5t-50.5 -120.5t50.5 -120.5t122.5 -49.5q33 0 81 23q11 5 23 -7l117 -114q14 -14 0 -29q-2 0 -2 -2q-99 -70 -219 -70 q-155 0 -264 107.5t-109 261.5z" />
<glyph unicode="d" horiz-adv-x="925" d="M88 342q0 154 108.5 263.5t262.5 109.5q91 0 172 -43v741q0 21 20 21h160q20 0 20 -21v-1393q0 -20 -20 -20h-160q-15 0 -18 12q-87 -41 -174 -41q-154 0 -262.5 108.5t-108.5 262.5zM289 342q0 -71 50 -121.5t120 -50.5q71 0 121.5 51t50.5 121t-50.5 120t-121.5 50 t-120.5 -50t-49.5 -120z" />
<glyph unicode="e" horiz-adv-x="833" d="M74 340q0 154 109 263.5t263 109.5q95 0 177 -45t135 -125q7 -9 18.5 -30.5t11.5 -29.5q0 -9 -10 -16l-389 -254q-8 -8 -8 -12q0 -33 65 -33q41 0 73.5 16.5t48 36.5t29 36.5t21.5 16.5q4 0 79 -24t81 -27q9 -4 11 -7.5t2 -14.5v-4q-39 -102 -137 -165t-210 -63 q-152 0 -261 108.5t-109 262.5zM276 358q0 -8 5.5 -15t13.5 -7q9 0 90.5 52.5t118.5 78.5q8 8 8 14q0 31 -66 31q-63 0 -116.5 -46t-53.5 -108z" />
<glyph unicode="f" horiz-adv-x="647" d="M-23 793v159q0 9 6.5 15t14.5 6h100v90q0 154 107.5 262.5t259.5 108.5q123 0 221 -72q0 -2 2 -2q11 -14 0 -29l-117 -114q-12 -12 -22 -7q-41 23 -84 23q-71 0 -119.5 -42t-48.5 -128v-90h195q20 0 20 -21v-159q0 -21 -20 -21h-195v-752q0 -20 -18 -20h-162 q-8 0 -13.5 5.5t-5.5 14.5v752h-100q-8 0 -14.5 6t-6.5 15z" />
<glyph unicode="g" horiz-adv-x="890" d="M86 340q0 155 109 264t264 109q11 0 23 -1t21.5 -2.5t22.5 -5t20.5 -5.5t22.5 -7t20 -7t21.5 -8t20.5 -7t9 5.5t9 6.5h162q8 0 14 -5.5t6 -14.5l-2 -904q0 -154 -107 -262t-261 -108q-123 0 -219 71l-2 2q-14 15 0 29l116 115q12 12 23 6q38 -23 82 -23q73 0 120.5 42 t47.5 128v252q-80 -39 -170 -39q-155 0 -264 107.5t-109 261.5zM287 340q0 -70 50.5 -120t121.5 -50t120.5 50t49.5 120q0 71 -50 121.5t-120 50.5q-71 0 -121.5 -51t-50.5 -121z" />
<glyph unicode="h" horiz-adv-x="884" d="M86 20v1393q0 9 5 15t13 6h162q8 0 14.5 -6t6.5 -15v-743q78 43 170 43q153 0 261.5 -109.5t108.5 -263.5v-320q0 -9 -6 -14.5t-14 -5.5h-160q-20 0 -20 20v320q0 71 -50 121.5t-120 50.5t-120 -50.5t-50 -121.5v-320q0 -9 -6.5 -14.5t-14.5 -5.5h-162q-18 0 -18 20z" />
<glyph unicode="i" horiz-adv-x="325" d="M82 793v159q0 21 20 21h160q8 0 14.5 -6t6.5 -15v-159q0 -9 -6.5 -15t-14.5 -6h-160q-20 0 -20 21zM86 20v642q0 9 6 14.5t14 5.5h160q21 0 21 -20v-642q0 -20 -21 -20h-160q-8 0 -14 5.5t-6 14.5z" />
<glyph unicode="j" horiz-adv-x="534" d="M-104 -510l114 115q11 11 21 6q41 -23 84 -23q71 0 119.5 42t48.5 128v904q0 20 20 20h160q8 0 14 -5.5t6 -14.5v-904q0 -154 -108 -262t-260 -108q-121 0 -217 71l-2 2q-14 15 0 29zM285 793v159q0 21 20 21h160q8 0 14 -6t6 -15v-159q0 -8 -6.5 -14.5t-13.5 -6.5h-160 q-9 0 -14.5 6.5t-5.5 14.5z" />
<glyph unicode="k" horiz-adv-x="876" d="M164 20v1393q0 9 5 15t13 6h162q9 0 15 -6t6 -15v-659q0 -21 20 -21q11 0 16 8l160 222q4 8 17 8h198q4 0 12 -4q15 -12 5 -29l-250 -338q-7 -11 0 -22l391 -543q4 -6 3 -14t-7 -13q-8 -4 -12 -4h-199q-12 0 -17 8l-301 424q-11 18 -28 4q-8 -4 -8 -16v-404 q0 -20 -21 -20h-162q-18 0 -18 20z" />
<glyph unicode="l" horiz-adv-x="385" d="M88 20v1393q0 9 5 15t13 6h162q8 0 14.5 -6t6.5 -15v-1393q0 -9 -6.5 -14.5t-14.5 -5.5h-162q-18 0 -18 20z" />
<glyph unicode="m" horiz-adv-x="1460" d="M94 20v642q0 8 6 14t15 6h159q11 0 19 -12q81 43 172 43t172 -43q8 12 18 12h162q11 0 19 -12q81 43 172 43q153 0 261.5 -109.5t108.5 -263.5v-320q0 -9 -6 -14.5t-14 -5.5h-160q-20 0 -20 20v320q0 71 -50 121.5t-120 50.5t-121 -51t-51 -121v-320q0 -9 -5.5 -14.5 t-13.5 -5.5h-2h-160q-20 0 -20 20v320q0 71 -50 121.5t-120 50.5t-120 -50.5t-50 -121.5v-320q0 -9 -6.5 -14.5t-14.5 -5.5h-159q-21 0 -21 20z" />
<glyph unicode="n" horiz-adv-x="919" d="M94 20v642q0 8 6 14t15 6h159q11 0 19 -12q81 43 172 43q154 0 262.5 -109.5t108.5 -263.5v-320q0 -20 -21 -20h-160q-20 0 -20 20v320q0 71 -50 121.5t-120 50.5t-120 -50.5t-50 -121.5v-320q0 -9 -6.5 -14.5t-14.5 -5.5h-159q-21 0 -21 20z" />
<glyph unicode="o" horiz-adv-x="886" d="M88 342q0 154 108.5 262.5t260.5 108.5q153 0 260.5 -108.5t107.5 -262.5q0 -155 -107 -263t-261 -108q-153 0 -261 108t-108 263zM289 342q0 -71 49.5 -121.5t118.5 -50.5q70 0 120 50.5t50 121.5q0 70 -49.5 120t-120.5 50q-69 0 -118.5 -50t-49.5 -120z" />
<glyph unicode="p" horiz-adv-x="880" d="M84 -592v1254q0 9 6 14.5t14 5.5h162q13 0 19 -12q76 43 172 43q154 0 263 -109t109 -264q0 -153 -109 -261t-263 -108q-90 0 -170 39v-602q0 -9 -6.5 -14.5t-14.5 -5.5h-162q-8 0 -14 5.5t-6 14.5zM287 340q0 -70 49.5 -120t120.5 -50t121.5 50t50.5 120t-50.5 121 t-121.5 51q-70 0 -120 -50.5t-50 -121.5z" />
<glyph unicode="q" horiz-adv-x="890" d="M88 340q0 155 108.5 264t262.5 109q98 0 174 -43q3 12 18 12h160q20 0 20 -20v-1254q0 -20 -20 -20h-160q-20 0 -20 20v602q-80 -39 -172 -39q-154 0 -262.5 107.5t-108.5 261.5zM289 340q0 -70 49.5 -120t120.5 -50q72 0 122 49.5t50 120.5t-50 121.5t-122 50.5 q-70 0 -120 -50.5t-50 -121.5z" />
<glyph unicode="r" horiz-adv-x="636" d="M63 20v642q0 7 6.5 13.5t14.5 6.5h162q10 0 18 -12q81 43 172 43q121 0 219 -72q6 -6 7 -15.5t-5 -15.5l-116 -116q-11 -11 -23 -5q-48 23 -82 23q-70 0 -121 -51t-51 -121v-320q0 -20 -20 -20h-160q-8 0 -14.5 5.5t-6.5 14.5z" />
<glyph unicode="s" horiz-adv-x="778" d="M33 479q0 98 102.5 168t247.5 70q134 0 234 -61.5t114 -151.5q2 -9 -4.5 -17t-15.5 -8h-166q-7 0 -15 8q-27 27 -147 27q-63 0 -106.5 -10t-43.5 -25q0 -14 44 -24.5t106 -10.5q145 0 247.5 -69.5t102.5 -167.5t-102.5 -167t-247.5 -69q-136 0 -235 61t-113 152 q-2 9 3.5 16t14.5 7h168q9 0 15 -6q12 -12 54 -20.5t93 -8.5q61 0 105 10.5t44 24.5q0 15 -43.5 25t-105.5 10q-145 0 -247.5 69.5t-102.5 167.5z" />
<glyph unicode="t" horiz-adv-x="636" d="M72 793v159q0 21 20 21h131v217q0 9 5.5 14.5t13.5 5.5h161q8 0 14.5 -5.5t6.5 -14.5v-217h160q8 0 14 -6t6 -15v-159q0 -8 -6.5 -14.5t-13.5 -6.5h-160v-401q0 -54 9.5 -89t29.5 -52t41.5 -22.5t54.5 -6.5h14q7 0 14 -6.5t7 -14.5v-160q0 -4 -1.5 -7.5t-3 -5.5t-5 -3.5 t-6 -2t-7 -1t-7 -0.5h-7.5h-6q-45 0 -76.5 2.5t-68.5 11t-62 24t-49.5 43t-39 66.5t-23.5 95.5t-9 128.5v401h-131q-9 0 -14.5 6.5t-5.5 14.5z" />
<glyph unicode="u" horiz-adv-x="909" d="M94 342v320q0 20 21 20h159q8 0 14.5 -5.5t6.5 -14.5v-320q0 -71 50 -121.5t120 -50.5t120 50.5t50 121.5v320q0 9 6 14.5t14 5.5h160q21 0 21 -20v-642q0 -8 -6 -14t-15 -6h-160q-14 0 -18 12q-84 -41 -172 -41q-154 0 -262.5 108.5t-108.5 262.5zM655 682h160h-160z " />
<glyph unicode="v" horiz-adv-x="806" d="M74 664q-3 7 0.5 12.5t11.5 5.5h176q22 0 29 -18l127 -324q6 -13 19.5 -12.5t19.5 12.5l127 324q7 18 28 18h176q8 0 12 -5.5t1 -12.5l-256 -646q-7 -18 -29 -18h-160q-19 0 -26 18z" />
<glyph unicode="w" horiz-adv-x="1202" d="M74 664q-3 7 0.5 12.5t11.5 5.5h176q22 0 29 -18l127 -324q8 -19 26 -12q10 3 13 12l127 324q7 18 28 18h47q20 0 27 -18l129 -324q8 -19 25 -12q9 3 12 12l129 324q7 18 27 18h176q8 0 11.5 -5.5t0.5 -12.5l-256 -646q-7 -18 -27 -18h-159q-22 0 -29 18l-72 183 q-7 17 -24 10q-10 -3 -13 -10l-71 -183q-7 -18 -29 -18h-160q-19 0 -26 18z" />
<glyph unicode="x" horiz-adv-x="862" d="M82 33l215 297q11 11 0 22l-215 297q-11 18 4 29q8 4 12 4h199q8 0 16 -8l101 -139q12 -16 26 -5q1 0 6 5l101 139q8 8 16 8h199q6 0 10 -4q17 -10 6 -29l-217 -297q-7 -11 0 -22l217 -297q11 -19 -6 -29q-4 -4 -10 -4h-199q-8 0 -16 8l-101 139q-5 6 -13.5 7.5 t-14.5 -2.5q-4 -4 -4 -5l-101 -139q-8 -8 -16 -8h-199q-4 0 -12 4q-15 11 -4 29z" />
<glyph unicode="y" horiz-adv-x="829" d="M80 664q-3 7 0.5 12.5t11.5 5.5h178q20 0 27 -18l131 -324q7 -19 27 -12q7 4 10 12l129 324q7 18 29 18h176q9 0 13 -5t1 -13l-508 -1264q-6 -12 -20 -12h-172q-11 0 -17 8.5t-2 17.5l242 596q3 8 0 17z" />
<glyph unicode="z" horiz-adv-x="821" d="M90 20v160q0 22 14 33l295 231q11 9 6 23t-18 14h-278q-8 0 -13.5 6t-5.5 15v160q0 8 6 14t13 6h643q7 0 12.5 -6t5.5 -14v-160q0 -23 -14 -33l-295 -233q-11 -8 -6 -21.5t18 -13.5h279q7 0 12.5 -6.5t5.5 -14.5v-160q0 -20 -18 -20h-643q-19 8 -19 20z" />
<glyph unicode="{" />
<glyph unicode="&#xa0;" />
<glyph unicode="&#xa1;" horiz-adv-x="329" d="M47 20q0 -8 6 -14t15 -6h163q8 0 14.5 6.5t6.5 13.5v1035q0 7 -6.5 13.5t-14.5 6.5h-163q-7 0 -13 -6.5t-8 -13.5v-1035zM47 1249v162q0 8 6 13.5t15 5.5h159q8 0 14.5 -6t6.5 -13v-162q0 -7 -6.5 -13.5t-14.5 -6.5h-159q-9 0 -15 6t-6 14z" />
<glyph unicode="&#xa2;" horiz-adv-x="733" d="M76 340q0 119 67.5 214t175.5 134l-2 148q0 8 7 14t14 6h164q20 0 20 -20v-134q79 -15 146 -63q2 0 2 -2q14 -15 0 -29l-117 -114q-12 -12 -23 -7q-41 23 -81 23q-72 0 -122.5 -49.5t-50.5 -120.5t50.5 -120.5t122.5 -49.5q33 0 81 23q11 5 23 -7l117 -114q14 -14 0 -29 q-2 0 -2 -2q-62 -45 -144 -61v-132q0 -20 -20 -20h-164q-21 0 -21 20l-2 148q-107 37 -174 131t-67 213z" />
<glyph unicode="&#xa3;" horiz-adv-x="788" d="M-162 518v176q0 9 7 16t16 7h139v319q0 135 95.5 230.5t230.5 95.5q128 0 221.5 -88t101.5 -215q1 -9 -5.5 -16t-14.5 -7h-178q-8 0 -15 6t-8 13q-6 36 -35 61t-67 25q-43 0 -74 -31t-31 -74v-319h352q8 0 14.5 -7t6.5 -16v-176q0 -9 -6.5 -15.5t-14.5 -6.5h-352v-19 q0 -106 75 -181t181 -75h252q9 0 16 -6.5t7 -15.5v-176q0 -9 -7 -16t-16 -7h-706q-9 0 -16 7t-7 16v473h-139q-9 0 -16 6.5t-7 15.5z" />
<glyph unicode="&#xa5;" horiz-adv-x="1009" d="M57 1305q-3 9 4 17.5t17 8.5h186q18 0 25 -14l262 -408q6 -10 17.5 -9.5t17.5 9.5l262 408q9 14 20 14h193q10 0 15.5 -8.5t2.5 -17.5l-366 -592h164q8 0 14 -6t6 -15v-164q0 -8 -6.5 -14t-13.5 -6h-207v-127h204q9 -1 15 -7t6 -14v-163q0 -9 -6 -15.5t-15 -5.5h-204 v-156q0 -20 -21 -20h-164q-8 0 -14 5.5t-6 14.5v156h-225q-8 -2 -14.5 5t-6.5 16v163q0 7 6.5 13t14.5 8h225v127h-223q-9 0 -15 6t-6 14v164q0 9 6 15t15 6h180z" />
<glyph unicode="&#xa8;" horiz-adv-x="770" d="M338 1454v170q0 8 6.5 14.5t13.5 6.5h160q9 0 15 -6.5t6 -14.5v-170q0 -20 -21 -20h-160q-8 0 -14 5.5t-6 14.5zM625 1454v170q0 8 6.5 14.5t13.5 6.5h160q9 0 14.5 -6.5t5.5 -14.5v-170q0 -20 -20 -20h-160q-8 0 -14 5.5t-6 14.5z" />
<glyph unicode="&#xad;" horiz-adv-x="872" d="M104 248v166q0 20 21 20h649q21 0 21 -20v-166q0 -9 -6 -15t-15 -6h-649q-9 0 -15 6t-6 15z" />
<glyph unicode="&#xaf;" horiz-adv-x="821" d="M43 457v166q0 20 20 20h650q20 0 20 -20v-166q0 -21 -20 -21h-650q-20 0 -20 21z" />
<glyph unicode="&#xb1;" />
<glyph unicode="&#xb4;" horiz-adv-x="720" d="M489 1454l82 356q0 9 6.5 15t14.5 6h160q20 0 20 -21l-82 -356q0 -20 -20 -20h-160q-8 0 -14.5 5.5t-6.5 14.5z" />
<glyph unicode="&#xb7;" />
<glyph unicode="&#xbc;" />
<glyph unicode="&#xbd;" />
<glyph unicode="&#xbf;" horiz-adv-x="772" d="M0 328q0 102 62 188t157 131q53 25 85 74t32 110v224q0 7 6 13.5t14 6.5h166q8 0 14.5 -6.5t6.5 -13.5v-224q0 -119 -64.5 -218t-169.5 -150q-40 -19 -64 -55.5t-24 -81.5q0 -63 45 -108.5t109 -45.5q58 0 101.5 39.5t51.5 95.5q0 7 6.5 13t14.5 6h164q20 0 20 -21 q0 -146 -103.5 -240t-254.5 -94t-263 105.5t-112 251.5zM348 1249v160q0 9 6 15t15 6h159q8 0 14.5 -6t6.5 -15v-160q0 -9 -6.5 -14.5t-14.5 -5.5h-159q-21 0 -21 20zM348 1249v160q0 9 6 15t15 6h159q8 0 14.5 -6t6.5 -15v-160q0 -9 -6.5 -14.5t-14.5 -5.5h-159 q-21 0 -21 20z" />
<glyph unicode="&#xc0;" horiz-adv-x="1122" d="M72 20q0 5 2 7l395 1290q7 14 20 14h191q14 0 18 -14l398 -1290q0 -1 1 -3.5t1 -3.5q0 -9 -6.5 -14.5t-14.5 -5.5h-164q-15 0 -18 14l-117 381q-8 15 -20 15h-346q-17 0 -21 -15l-117 -381q-4 -14 -20 -14h-162q-8 0 -14 5.5t-6 14.5zM408 1810q0 9 6 15t14 6h160 q20 0 20 -21l82 -356q0 -20 -20 -20h-160q-8 0 -14.5 5.5t-6.5 14.5zM467 641q-3 -8 1 -16t13 -11h6h195q20 0 20 21v6l-98 317q-3 11 -14 15q-8 3 -16 -1.5t-9 -13.5z" />
<glyph unicode="&#xc1;" horiz-adv-x="1122" d="M72 20q0 -9 6 -14.5t14 -5.5h162q16 0 20 14l117 381q4 15 21 15h346q12 0 20 -15l117 -381q3 -14 18 -14h164q8 0 14.5 5.5t6.5 14.5q0 1 -1 3.5t-1 3.5l-398 1290q-4 14 -18 14h-191q-13 0 -20 -14l-395 -1290q-2 -2 -2 -7zM467 641l98 317q1 9 9 13.5t16 1.5 q11 -4 14 -15l98 -317v-6q0 -21 -20 -21h-195h-6q-9 3 -13 11t-1 16zM489 1454l82 356q0 9 6.5 15t14.5 6h160q20 0 20 -21l-82 -356q0 -20 -20 -20h-160q-8 0 -14.5 5.5t-6.5 14.5z" />
<glyph unicode="&#xc2;" horiz-adv-x="1122" d="M74 27l395 1290q7 14 20 14h191q14 0 18 -14l398 -1290q3 -9 -3.5 -18t-15.5 -9h-164q-15 0 -18 14l-117 381q-8 15 -20 15h-346q-17 0 -21 -15l-117 -381q-4 -14 -20 -14h-162q-10 0 -15.5 9t-2.5 18zM279 1454l204 356q5 9 7 12t7 6t13 3h154q8 0 13 -3.5t6 -5t7 -12.5 l205 -356q0 -20 -21 -20h-157q-11 0 -23 20q-22 38 -44.5 82.5t-33.5 69.5l-12 26q-6 10 -16 9.5t-15 -9.5q-43 -90 -94 -178q-1 -1 -2 -4q-11 -15 -20 -16h-158q-20 0 -20 20zM467 641q-3 -10 3 -18.5t17 -8.5h195q10 0 16.5 9t3.5 18l-98 317q-4 15 -19 15t-20 -15z" />
<glyph unicode="&#xc3;" horiz-adv-x="1122" d="M72 20q0 -9 6 -14.5t14 -5.5h162q16 0 20 14l117 381q4 15 21 15h346q12 0 20 -15l117 -381q3 -14 18 -14h164q8 0 14.5 5.5t6.5 14.5q0 1 -1 3.5t-1 3.5l-398 1290q-4 14 -18 14h-191q-13 0 -20 -14l-395 -1290q-2 -2 -2 -7zM237.5 1482.5q-0.5 3.5 3.5 14.5q0 2 1 4 q17 46 34.5 81t44.5 72t63 57t79 20q53 0 141 -47.5t135 -47.5q72 0 125 86q4 7 6 8t15 -4l57 -28q8 -4 8.5 -9t-4.5 -18q-17 -46 -34.5 -81t-44.5 -71.5t-63 -56.5t-79 -20q-42 0 -94.5 23.5t-101 47t-80.5 23.5q-72 0 -125 -86q-4 -7 -6 -8t-15 4l-57 29q-8 4 -8.5 7.5z M467 641l98 317q1 9 9 13.5t16 1.5q11 -4 14 -15l98 -317v-6q0 -21 -20 -21h-195h-6q-9 3 -13 11t-1 16z" />
<glyph unicode="&#xc4;" horiz-adv-x="1122" d="M72 20q0 -9 6 -14.5t14 -5.5h162q16 0 20 14l117 381q4 15 21 15h346q12 0 20 -15l117 -381q3 -14 18 -14h164q8 0 14.5 5.5t6.5 14.5q0 1 -1 3.5t-1 3.5l-398 1290q-4 14 -18 14h-191q-13 0 -20 -14l-395 -1290q-2 -2 -2 -7zM338 1454v170q0 8 6.5 14.5t13.5 6.5h160 q9 0 15 -6.5t6 -14.5v-170q0 -20 -21 -20h-160q-8 0 -14 5.5t-6 14.5zM467 641l98 317q1 9 9 13.5t16 1.5q11 -4 14 -15l98 -317v-6q0 -21 -20 -21h-195h-6q-9 3 -13 11t-1 16zM625 1454v170q0 8 6.5 14.5t13.5 6.5h160q9 0 14.5 -6.5t5.5 -14.5v-170q0 -20 -20 -20h-160 q-8 0 -14 5.5t-6 14.5z" />
<glyph unicode="&#xc5;" horiz-adv-x="1122" d="M72 20q0 5 2 7l395 1290q7 14 20 14h191q14 0 18 -14l398 -1290q0 -1 1 -3.5t1 -3.5q0 -9 -6.5 -14.5t-14.5 -5.5h-164q-15 0 -18 14l-117 381q-8 15 -20 15h-346q-17 0 -21 -15l-117 -381q-4 -14 -20 -14h-162q-8 0 -14 5.5t-6 14.5zM340 1675q0 100 71 171t171 71 t170.5 -71t70.5 -171t-70.5 -170.5t-170.5 -70.5t-171 70.5t-71 170.5zM467 641q-3 -8 1 -16t13 -11h6h195q20 0 20 21v6l-98 317q-3 11 -14 15q-8 3 -16 -1.5t-9 -13.5zM479 1675q0 -43 30 -72.5t73 -29.5t72.5 29.5t29.5 72.5t-29.5 73t-72.5 30t-73 -30t-30 -73z" />
<glyph unicode="&#xc6;" horiz-adv-x="1640" d="M170 27l649 1290q3 14 21 14q463 -2 743 -2q21 0 21 -20v-162q0 -9 -6 -15t-15 -6h-459q-9 0 -14.5 -6t-5.5 -14l2 -502q0 -20 20 -20h336q9 0 15 -6t6 -15v-164q0 -8 -6 -14t-15 -6h-336q-20 0 -20 -21l-2 -133q0 -20 20 -20h459q9 0 15 -6.5t6 -14.5v-164 q0 -20 -21 -20h-670q-15 0 -18 14l4 365v16q-4 15 -18 15h-287q-14 0 -21 -15l-192 -381q-7 -14 -21 -14h-170q-10 0 -16.5 9t-3.5 18zM711 641q-3 -10 3 -18.5t15 -8.5h148q10 0 16.5 9t3.5 18l2 317q-3 15 -19 15t-20 -15z" />
<glyph unicode="&#xc7;" horiz-adv-x="849" d="M51 319v693q0 146 114.5 248t276.5 102q156 0 270.5 -95.5t123.5 -232.5q0 -18 -23 -22h-180q-19 0 -23 18q-8 56 -55 94.5t-111 38.5q-70 0 -119 -43.5t-49 -105.5v-695q0 -63 49 -107t119 -44q64 0 111 38.5t55 94.5q4 18 23 18h180q9 0 16 -6t7 -14q-7 -116 -90 -203 t-207 -112l-45 -203q0 -9 -6.5 -15t-14.5 -6h-160q-20 0 -20 21l47 203q-126 30 -207.5 122.5t-81.5 212.5z" />
<glyph unicode="&#xc8;" horiz-adv-x="798" d="M59 20q0 -5 5.5 -10t10.5 -8l5 -2h663q21 0 21 20v164q0 8 -6 14.5t-15 6.5h-458q-21 0 -21 20l2 133q0 9 6 15t15 6h336q9 0 14.5 6t5.5 14v164q0 21 -20 21h-336q-21 0 -21 20l-2 502q0 8 6 14t15 6h458q9 0 15 6t6 15v162q0 20 -21 20h-663q-8 0 -14.5 -5.5 t-6.5 -14.5v-1289zM264 1810q0 9 6.5 15t14.5 6h159q9 0 15 -6t6 -15l82 -356q0 -20 -21 -20h-159q-8 0 -14.5 5.5t-6.5 14.5z" />
<glyph unicode="&#xc9;" horiz-adv-x="798" d="M59 20v1289q0 9 6.5 14.5t14.5 5.5h663q21 0 21 -20v-162q0 -9 -6 -15t-15 -6h-458q-9 0 -15 -6t-6 -14l2 -502q0 -20 21 -20h336q20 0 20 -21v-164q0 -8 -5.5 -14t-14.5 -6h-336q-9 0 -15 -6t-6 -15l-2 -133q0 -20 21 -20h458q9 0 15 -6.5t6 -14.5v-164q0 -20 -21 -20 h-663q-21 8 -21 20zM264 1454l82 356q0 9 6.5 15t14.5 6h159q9 0 15 -6t6 -15l-82 -356q0 -20 -21 -20h-159q-8 0 -14.5 5.5t-6.5 14.5z" />
<glyph unicode="&#xca;" horiz-adv-x="798" d="M59 20q0 -5 5.5 -10t10.5 -8l5 -2h663q21 0 21 20v164q0 8 -6 14.5t-15 6.5h-458q-21 0 -21 20l2 133q0 9 6 15t15 6h336q9 0 14.5 6t5.5 14v164q0 21 -20 21h-336q-21 0 -21 20l-2 502q0 8 6 14t15 6h458q9 0 15 6t6 15v162q0 20 -21 20h-663q-8 0 -14.5 -5.5 t-6.5 -14.5v-1289zM115 1454l204 356q5 9 7 12t7 6t13 3h154q8 0 13 -3.5t6 -5t7 -12.5l205 -356q0 -20 -20 -20h-158q-11 0 -23 20q-22 38 -44.5 82.5t-33.5 69.5l-12 26q-6 10 -15.5 9.5t-14.5 -9.5q-44 -90 -95 -178q-1 -1 -2 -4q-11 -15 -20 -16h-158q-20 0 -20 20z" />
<glyph unicode="&#xcb;" horiz-adv-x="798" d="M59 20v1289q0 9 6.5 14.5t14.5 5.5h663q21 0 21 -20v-162q0 -9 -6 -15t-15 -6h-458q-9 0 -15 -6t-6 -14l2 -502q0 -20 21 -20h336q20 0 20 -21v-164q0 -8 -5.5 -14t-14.5 -6h-336q-9 0 -15 -6t-6 -15l-2 -133q0 -20 21 -20h458q9 0 15 -6.5t6 -14.5v-164q0 -20 -21 -20 h-663q-21 8 -21 20zM174 1454v170q0 8 7 14.5t14 6.5h159q9 0 15 -6.5t6 -14.5v-170q0 -20 -21 -20h-159q-8 0 -14.5 5.5t-6.5 14.5zM461 1454v170q0 8 6.5 14.5t13.5 6.5h160q9 0 15 -6.5t6 -14.5v-170q0 -20 -21 -20h-160q-8 0 -14 5.5t-6 14.5z" />
<glyph unicode="&#xcc;" horiz-adv-x="368" d="M2 1810q0 9 6.5 15t14.5 6h159q9 0 15 -6t6 -15l82 -356q0 -20 -21 -20h-160q-8 0 -14 5.5t-6 14.5zM82 20v1291q0 7 6 13.5t14 6.5h164q9 0 15 -6t6 -14v-1291q0 -8 -6 -14t-15 -6h-164q-10 0 -20 20z" />
<glyph unicode="&#xcd;" horiz-adv-x="368" d="M82 20q10 -20 20 -20h164q9 0 15 6t6 14v1291q0 8 -6 14t-15 6h-164q-8 0 -14 -6.5t-6 -13.5v-1291zM86 1454l82 356q0 9 6 15t14 6h160q9 0 15 -6t6 -15l-82 -356q0 -20 -21 -20h-160q-8 0 -14 5.5t-6 14.5z" />
<glyph unicode="&#xce;" horiz-adv-x="464" d="M-117 1454l203 356q5 9 7 12t7 6t13 3h153q11 0 15.5 -4t11.5 -17l205 -356q0 -20 -21 -20h-158q-2 0 -4 0.5t-3.5 1t-3 2l-2.5 2.5t-2.5 3t-2 3.5t-2 4t-2.5 3.5q-22 38 -45 82.5t-35 69.5l-12 26q-5 10 -14.5 9.5t-14.5 -9.5q-43 -90 -94 -178q-12 -20 -23 -20h-155 q-21 0 -21 20zM82 20v1291q0 7 6 13.5t14 6.5h164q9 0 15 -6t6 -14v-1291q0 -8 -6 -14t-15 -6h-164q-10 0 -20 20z" />
<glyph unicode="&#xcf;" horiz-adv-x="407" d="M-49 1454v170q0 8 6.5 14.5t13.5 6.5h158q9 0 15 -6.5t6 -14.5v-170q0 -20 -21 -20h-158q-8 0 -14 5.5t-6 14.5zM82 20q10 -20 20 -20h164q9 0 15 6t6 14v1291q0 8 -6 14t-15 6h-164q-8 0 -14 -6.5t-6 -13.5v-1291zM236 1454v170q0 8 6.5 14.5t13.5 6.5h160 q9 0 14.5 -6.5t5.5 -14.5v-170q0 -20 -20 -20h-160q-8 0 -14 5.5t-6 14.5z" />
<glyph unicode="&#xd0;" horiz-adv-x="972" d="M-10 588v164q0 20 18 20h70v539q0 7 6 13.5t14 6.5h164q181 0 334.5 -89t242.5 -242t89 -334t-89 -334t-242.5 -242.5t-334.5 -89.5h-164q-8 0 -14 6t-6 14v547h-70q-8 0 -13 6t-5 15zM283 227q0 -9 6 -14.5t14 -5.5q47 0 113 24q138 50 222.5 169.5t84.5 265.5t-84 265 t-221 169q-66 24 -113 24q-9 0 -15.5 -5.5t-6.5 -14.5v-332h227q20 0 20 -20v-164q0 -21 -20 -21h-227v-340z" />
<glyph unicode="&#xd1;" horiz-adv-x="892" d="M82 20q0 -9 6 -14.5t14 -5.5h164q21 0 21 20v662q0 14 14 18q7 3 15.5 0t11.5 -10l274 -678q3 -12 19 -12h170q20 0 20 20v1291q0 20 -20 20h-164q-8 0 -14.5 -5.5t-6.5 -14.5v-662q0 -15 -12 -18q-7 -3 -15.5 0t-11.5 10l-274 678q-6 12 -19 12h-172q-8 0 -14 -5.5 t-6 -14.5v-1291zM114.5 1482.5q-0.5 3.5 3.5 14.5q0 2 1 4q17 46 34.5 81t44.5 72t63 57t79 20q53 0 141 -47.5t135 -47.5q72 0 125 86q4 7 6 8t15 -4l57 -28q8 -4 8.5 -9t-4.5 -18q-17 -46 -34.5 -81t-44.5 -71.5t-63 -56.5t-79 -20q-42 0 -94.5 23.5t-101 47t-80.5 23.5 q-72 0 -125 -86q-4 -7 -6 -8t-15 4l-57 29q-8 4 -8.5 7.5z" />
<glyph unicode="&#xd2;" horiz-adv-x="874" d="M80 328v676q0 148 105 253t253 105t253.5 -105t105.5 -253v-676q0 -148 -105.5 -252.5t-253.5 -104.5t-253 104.5t-105 252.5zM264 1810q0 9 6.5 15t14.5 6h159q9 0 15 -6t6 -15l82 -356q0 -20 -21 -20h-159q-8 0 -14.5 5.5t-6.5 14.5zM285 328q0 -63 45 -108.5 t108 -45.5t108.5 45.5t45.5 108.5v676q0 63 -45.5 108t-108.5 45t-108 -45t-45 -108v-676z" />
<glyph unicode="&#xd3;" horiz-adv-x="874" d="M80 328q0 -148 105 -252.5t253 -104.5t253.5 104.5t105.5 252.5v676q0 148 -105.5 253t-253.5 105t-253 -105t-105 -253v-676zM285 328v676q0 63 45 108t108 45t108.5 -45t45.5 -108v-676q0 -63 -45.5 -108.5t-108.5 -45.5t-108 45.5t-45 108.5zM326 1454l82 356 q0 9 6 15t14 6h160q20 0 20 -21l-82 -356q0 -20 -20 -20h-160q-8 0 -14 5.5t-6 14.5z" />
<glyph unicode="&#xd4;" horiz-adv-x="874" d="M80 328v676q0 148 105 253t253 105t253.5 -105t105.5 -253v-676q0 -148 -105.5 -252.5t-253.5 -104.5t-253 104.5t-105 252.5zM131 1454l205 356q1 1 3 4.5t2.5 4.5t2 3.5t2.5 3.5t3 2t3.5 1.5t4 1t5.5 0.5h154q11 0 15.5 -4t11.5 -17l205 -356q0 -9 -6.5 -14.5 t-14.5 -5.5h-158q-2 0 -4 0.5t-3.5 1t-3 2l-2.5 2.5t-2.5 3t-2 3.5t-2 4t-2.5 3.5q-22 38 -45 82.5t-35 69.5l-12 26q-5 10 -15 9.5t-16 -9.5q-43 -90 -92 -178q-12 -20 -23 -20h-157q-21 0 -21 20zM285 328q0 -63 45 -108.5t108 -45.5t108.5 45.5t45.5 108.5v676 q0 63 -45.5 108t-108.5 45t-108 -45t-45 -108v-676z" />
<glyph unicode="&#xd5;" horiz-adv-x="874" d="M80 328q0 -148 105 -252.5t253 -104.5t253.5 104.5t105.5 252.5v676q0 148 -105.5 253t-253.5 105t-253 -105t-105 -253v-676zM93.5 1482.5q-0.5 3.5 3.5 14.5q0 2 1 4q17 46 34.5 81t44.5 72t63 57t79 20q53 0 141.5 -47.5t135.5 -47.5q72 0 125 86q4 7 5.5 8t14.5 -4 l58 -28q8 -4 8.5 -9t-4.5 -18q-17 -46 -34.5 -81t-44.5 -71.5t-63 -56.5t-79 -20q-42 0 -95 23.5t-101.5 47t-80.5 23.5q-72 0 -125 -86q-4 -7 -5.5 -8t-14.5 4l-58 29q-8 4 -8.5 7.5zM285 328v676q0 63 45 108t108 45t108.5 -45t45.5 -108v-676q0 -63 -45.5 -108.5 t-108.5 -45.5t-108 45.5t-45 108.5z" />
<glyph unicode="&#xd6;" horiz-adv-x="874" d="M80 328q0 -148 105 -252.5t253 -104.5t253.5 104.5t105.5 252.5v676q0 148 -105.5 253t-253.5 105t-253 -105t-105 -253v-676zM195 1454v170q0 8 6.5 14.5t13.5 6.5h160q9 0 14.5 -6.5t5.5 -14.5v-170q0 -20 -20 -20h-160q-8 0 -14 5.5t-6 14.5zM285 328v676q0 63 45 108 t108 45t108.5 -45t45.5 -108v-676q0 -63 -45.5 -108.5t-108.5 -45.5t-108 45.5t-45 108.5zM481 1454v170q0 8 6.5 14.5t14.5 6.5h160q9 0 14.5 -6.5t5.5 -14.5v-170q0 -20 -20 -20h-160q-8 0 -14.5 5.5t-6.5 14.5z" />
<glyph unicode="&#xd8;" horiz-adv-x="888" d="M14 27l88 176q-22 61 -22 125v676q0 148 105 253t253 105q119 0 213 -72l13 23q7 18 26 18h178q8 0 12.5 -5.5t0.5 -12.5l-101 -201q17 -59 17 -108v-676q0 -148 -105.5 -252.5t-253.5 -104.5q-106 0 -202 62l-11 -21q-6 -12 -18 -12h-174q-9 0 -16 9t-3 18zM285 563 l272 537q-47 57 -119 57q-63 0 -108 -45t-45 -108v-441zM330 219q48 -45 108 -45q63 0 108.5 45.5t45.5 108.5v411z" />
<glyph unicode="&#xd9;" horiz-adv-x="876" d="M82 328v983q0 8 5.5 14t14.5 6h164q8 0 14.5 -6.5t6.5 -13.5v-983q0 -63 45 -108.5t108 -45.5t108.5 45.5t45.5 108.5v983q0 8 5.5 14t14.5 6h164q8 0 14.5 -6.5t6.5 -13.5v-983q0 -148 -105.5 -252.5t-253.5 -104.5q-149 0 -253.5 104.5t-104.5 252.5zM285 1810 q0 9 6 15t14 6h160q20 0 20 -21l82 -356q0 -20 -20 -20h-160q-8 0 -14 5.5t-6 14.5z" />
<glyph unicode="&#xda;" horiz-adv-x="876" d="M82 328q0 -148 104.5 -252.5t253.5 -104.5q148 0 253.5 104.5t105.5 252.5v983q0 7 -6.5 13.5t-14.5 6.5h-164q-9 0 -14.5 -6t-5.5 -14v-983q0 -63 -45.5 -108.5t-108.5 -45.5t-108 45.5t-45 108.5v983q0 7 -6.5 13.5t-14.5 6.5h-164q-9 0 -14.5 -6t-5.5 -14v-983z M326 1454l82 356q0 9 6 15t14 6h160q20 0 20 -21l-82 -356q0 -20 -20 -20h-160q-8 0 -14 5.5t-6 14.5z" />
<glyph unicode="&#xdb;" horiz-adv-x="876" d="M82 328v983q0 8 5.5 14t14.5 6h164q8 0 14.5 -6.5t6.5 -13.5v-983q0 -63 45 -108.5t108 -45.5t108.5 45.5t45.5 108.5v983q0 8 5.5 14t14.5 6h164q8 0 14.5 -6.5t6.5 -13.5v-983q0 -148 -105.5 -252.5t-253.5 -104.5q-149 0 -253.5 104.5t-104.5 252.5zM135 1454l205 356 q5 9 7 12t7 6t13 3h153q11 0 15.5 -4t11.5 -17l205 -356q0 -20 -21 -20h-158q-2 0 -4 0.5t-3.5 1t-3 2l-2.5 2.5t-2.5 3t-2 3.5t-2 4t-2.5 3.5q-22 38 -44.5 82.5t-34.5 69.5l-11 26q-6 10 -16 9.5t-15 -9.5q-43 -90 -94 -178q-12 -20 -23 -20h-157q-21 0 -21 20z" />
<glyph unicode="&#xdc;" horiz-adv-x="876" d="M82 328q0 -148 104.5 -252.5t253.5 -104.5q148 0 253.5 104.5t105.5 252.5v983q0 7 -6.5 13.5t-14.5 6.5h-164q-9 0 -14.5 -6t-5.5 -14v-983q0 -63 -45.5 -108.5t-108.5 -45.5t-108 45.5t-45 108.5v983q0 7 -6.5 13.5t-14.5 6.5h-164q-9 0 -14.5 -6t-5.5 -14v-983z M195 1454v170q0 8 6.5 14.5t13.5 6.5h160q9 0 14.5 -6.5t5.5 -14.5v-170q0 -20 -20 -20h-160q-8 0 -14 5.5t-6 14.5zM481 1454v170q0 8 6.5 14.5t14.5 6.5h160q9 0 14.5 -6.5t5.5 -14.5v-170q0 -20 -20 -20h-160q-8 0 -14.5 5.5t-6.5 14.5z" />
<glyph unicode="&#xdd;" horiz-adv-x="1009" d="M57 1305l406 -656q2 -4 2 -10v-619q0 -9 6 -14.5t14 -5.5h164q21 0 21 20v619q0 6 4 10l405 656q3 9 -2.5 17.5t-15.5 8.5h-193q-11 0 -20 -14l-262 -408q-6 -9 -17.5 -9.5t-17.5 9.5l-262 408q-7 14 -25 14h-186q-10 0 -17 -8.5t-4 -17.5zM469 1454l82 356q0 9 6 15 t14 6h160q9 0 15 -6t6 -15l-82 -356q0 -20 -21 -20h-160q-8 0 -14 5.5t-6 14.5z" />
<glyph unicode="&#xde;" horiz-adv-x="827" d="M59 20v1291q0 8 6 14t15 6h164q8 0 14 -6.5t6 -13.5v-215q0 -9 6 -15t15 -6h82q169 0 289 -119.5t120 -289.5q0 -169 -120 -288.5t-289 -119.5h-82q-9 0 -15 -6t-6 -14v-218q0 -9 -6 -14.5t-14 -5.5h-164q-21 0 -21 20zM264 483q0 -20 21 -20h82q85 0 144.5 59t59.5 144 t-59.5 144.5t-144.5 59.5h-82q-21 0 -21 -20v-367z" />
<glyph unicode="&#xdf;" />
<glyph unicode="&#xe0;" horiz-adv-x="882" d="M84 342q0 154 108.5 263.5t262.5 109.5q155 0 263.5 -109.5t108.5 -263.5v-322q0 -20 -20 -20h-160q-4 0 -9.5 6.5t-8.5 5.5q-7 -2 -32 -10.5t-36 -12t-32 -9t-38.5 -7.5t-35.5 -2q-154 0 -262.5 108.5t-108.5 262.5zM84 342q0 154 108.5 263.5t262.5 109.5 q155 0 263.5 -109.5t108.5 -263.5v-322q0 -20 -20 -20h-160q-4 0 -9.5 6.5t-8.5 5.5q-7 -2 -32 -10.5t-36 -12t-32 -9t-38.5 -7.5t-35.5 -2q-154 0 -262.5 108.5t-108.5 262.5zM84 342q0 154 108.5 263.5t262.5 109.5q155 0 263.5 -109.5t108.5 -263.5v-322q0 -20 -20 -20 h-160q-4 0 -9.5 6.5t-8.5 5.5q-7 -2 -32 -10.5t-36 -12t-32 -9t-38.5 -7.5t-35.5 -2q-154 0 -262.5 108.5t-108.5 262.5zM285 342q0 -70 49.5 -120t120.5 -50q72 0 122 49.5t50 120.5t-50 121.5t-122 50.5q-70 0 -120 -50.5t-50 -121.5zM285 342q0 -70 49.5 -120t120.5 -50 q72 0 122 49.5t50 120.5t-50 121.5t-122 50.5q-70 0 -120 -50.5t-50 -121.5zM285 342q0 -70 49.5 -120t120.5 -50q72 0 122 49.5t50 120.5t-50 121.5t-122 50.5q-70 0 -120 -50.5t-50 -121.5zM303 1231q0 9 6.5 14.5t14.5 5.5h159q21 0 21 -20l82 -357q0 -8 -6 -14t-15 -6 h-159q-8 0 -14.5 6.5t-6.5 13.5z" />
<glyph unicode="&#xe1;" horiz-adv-x="884" d="M84 342q0 -154 108.5 -262.5t262.5 -108.5q18 0 35.5 2t38.5 7.5t32 9t36 12t32 10.5q3 1 8.5 -5.5t9.5 -6.5h160q20 0 20 20v322q0 154 -108.5 263.5t-263.5 109.5q-154 0 -262.5 -109.5t-108.5 -263.5zM285 342q0 71 50 121.5t120 50.5q72 0 122 -50.5t50 -121.5 t-50 -120.5t-122 -49.5q-71 0 -120.5 50t-49.5 120zM344 874l82 357q0 9 6 14.5t14 5.5h160q21 0 21 -20l-82 -357q0 -8 -6 -14t-15 -6h-159q-8 0 -14.5 6.5t-6.5 13.5z" />
<glyph unicode="&#xe2;" horiz-adv-x="894" d="M84 342q0 154 108.5 263.5t262.5 109.5q155 0 263.5 -109.5t108.5 -263.5v-322q0 -20 -20 -20h-160q-4 0 -9.5 6.5t-8.5 5.5q-7 -2 -32 -10.5t-36 -12t-32 -9t-38.5 -7.5t-35.5 -2q-154 0 -262.5 108.5t-108.5 262.5zM158 872l204 357q4 7 5.5 9.5t5 5.5t7 4t9.5 1h154 q6 0 9.5 -0.5t7 -4.5t4 -5.5t5.5 -9.5l205 -357q0 -20 -20 -20h-158q-11 0 -23 20q-22 38 -44.5 83t-34.5 71l-11 25q-6 10 -15.5 9.5t-14.5 -9.5q-44 -91 -95 -179q-1 -1 -2 -4q-10 -16 -20 -16h-158q-20 0 -20 20zM285 342q0 -70 49.5 -120t120.5 -50q72 0 122 49.5 t50 120.5t-50 121.5t-122 50.5q-70 0 -120 -50.5t-50 -121.5z" />
<glyph unicode="&#xe3;" horiz-adv-x="903" d="M84 342q0 -154 108.5 -262.5t262.5 -108.5q18 0 35.5 2t38.5 7.5t32 9t36 12t32 10.5q3 1 8.5 -5.5t9.5 -6.5h160q20 0 20 20v322q0 154 -108.5 263.5t-263.5 109.5q-154 0 -262.5 -109.5t-108.5 -263.5zM114.5 896.5q-0.5 3.5 3.5 14.5q0 2 1 4q17 46 34.5 81t44.5 72 t63 57t79 20q53 0 141 -47t135 -47q72 0 125 86q4 7 6 8t15 -4l57 -29q8 -4 8.5 -9t-4.5 -18q-17 -46 -34.5 -81t-44.5 -71.5t-63 -56.5t-79 -20q-42 0 -94.5 23.5t-101 47t-80.5 23.5q-72 0 -125 -86q-4 -7 -6 -8t-15 4l-57 29q-8 4 -8.5 7.5zM285 342q0 71 50 121.5 t120 50.5q72 0 122 -50.5t50 -121.5t-50 -120.5t-122 -49.5q-71 0 -120.5 50t-49.5 120z" />
<glyph unicode="&#xe4;" horiz-adv-x="901" d="M84 342q0 -154 108.5 -262.5t262.5 -108.5q18 0 35.5 2t38.5 7.5t32 9t36 12t32 10.5q3 1 8.5 -5.5t9.5 -6.5h160q20 0 20 20v322q0 154 -108.5 263.5t-263.5 109.5q-154 0 -262.5 -109.5t-108.5 -263.5zM213 877v170q0 8 5.5 14t14.5 6h160q8 0 14.5 -6.5t6.5 -13.5 v-170q0 -9 -6.5 -15t-14.5 -6h-160q-20 0 -20 21zM285 342q0 71 50 121.5t120 50.5q72 0 122 -50.5t50 -121.5t-50 -120.5t-122 -49.5q-71 0 -120.5 50t-49.5 120zM500 877v170q0 8 5.5 14t14.5 6h160q8 0 14 -6.5t6 -13.5v-170q0 -9 -6 -15t-14 -6h-160q-20 0 -20 21z" />
<glyph unicode="&#xe5;" horiz-adv-x="886" d="M84 342q0 154 108.5 263.5t262.5 109.5q155 0 263.5 -109.5t108.5 -263.5v-322q0 -20 -20 -20h-160q-4 0 -9.5 6.5t-8.5 5.5q-7 -2 -32 -10.5t-36 -12t-32 -9t-38.5 -7.5t-35.5 -2q-154 0 -262.5 108.5t-108.5 262.5zM213 1098q0 100 71 170.5t171 70.5t170.5 -70.5 t70.5 -170.5t-70.5 -171t-170.5 -71t-171 71t-71 171zM285 342q0 -70 49.5 -120t120.5 -50q72 0 122 49.5t50 120.5t-50 121.5t-122 50.5q-70 0 -120 -50.5t-50 -121.5zM352 1098q0 -43 30 -73t73 -30t72.5 30t29.5 73t-29.5 72.5t-72.5 29.5t-73 -29.5t-30 -72.5z" />
<glyph unicode="&#xe6;" horiz-adv-x="1374" d="M74 479l2 4q39 103 136.5 166.5t209.5 63.5q78 0 149 -32t123 -89q111 121 273 121q95 0 177.5 -45t135.5 -125q29 -48 29 -60q0 -7 -9 -16l-389 -254q-8 -4 -8 -12q0 -33 64 -33q41 0 73.5 16.5t48 36.5t29 36.5t21.5 16.5q4 0 78.5 -24t80.5 -27q15 -7 15 -22 q0 -1 -1 -2t-1 -2q-39 -103 -135.5 -165.5t-208.5 -62.5q-164 0 -273 119q-113 -119 -274 -119q-95 0 -176.5 44t-134.5 124q-8 10 -19.5 31t-11.5 29t8 16l389 254q10 5 10 12q0 33 -65 33q-41 0 -73.5 -16.5t-48 -36.5t-29 -36.5t-21.5 -16.5q-4 0 -79 24t-81 27 q-14 7 -14 22zM354 199q0 -31 66 -31q61 0 115.5 46.5t54.5 107.5q0 8 -5.5 15t-13.5 7q-9 0 -99 -57.5t-110 -73.5q-8 -8 -8 -14zM797 358q0 -8 5.5 -15t14.5 -7q8 0 98 58t109 73q8 8 8 14q0 31 -63 31t-117.5 -46t-54.5 -108z" />
<glyph unicode="&#xe7;" horiz-adv-x="739" d="M76 340q0 154 109 262.5t264 108.5q121 0 219 -72q2 0 2 -2q6 -6 6 -14q0 -9 -6 -15l-117 -114q-7 -7 -14 -7h-9q-41 23 -81 23q-72 0 -122.5 -49.5t-50.5 -120.5t50.5 -120.5t122.5 -49.5q33 0 81 23q2 2 9 2q8 0 14 -9l117 -114q6 -6 6 -15q0 -8 -6 -14q-2 0 -2 -2 q-53 -39 -125 -57l-47 -201q0 -8 -6 -14.5t-15 -6.5h-160q-7 0 -13.5 6.5t-6.5 14.5l49 203q-118 32 -193 130.5t-75 223.5z" />
<glyph unicode="&#xe8;" horiz-adv-x="851" d="M74 340q0 154 109 263.5t263 109.5q95 0 177 -45t135 -125q7 -9 18.5 -30.5t11.5 -29.5q0 -9 -10 -16l-387 -254q-10 -5 -10 -12q0 -33 65 -33q41 0 73.5 16.5t48 36.5t29 36.5t21.5 16.5q4 0 79 -24t81 -27q9 -4 11 -7.5t2 -14.5v-4q-39 -102 -137 -165t-210 -63 q-152 0 -261 108.5t-109 262.5zM276 358q0 -8 5.5 -15t13.5 -7q9 0 90.5 52.5t118.5 78.5q8 8 8 14q0 31 -66 31q-61 0 -115.5 -46t-54.5 -108zM303 1231q0 9 6.5 14.5t14.5 5.5h159q21 0 21 -20l82 -357q0 -8 -6 -14t-15 -6h-159q-8 0 -14.5 6.5t-6.5 13.5z" />
<glyph unicode="&#xe9;" horiz-adv-x="851" d="M74 340q0 -154 109 -262.5t261 -108.5q112 0 210 63t137 165v4q0 11 -2 14.5t-11 7.5q-6 3 -81 27t-79 24q-8 0 -21.5 -16.5t-29 -36.5t-48 -36.5t-73.5 -16.5q-65 0 -65 33q0 7 10 12l387 254q10 7 10 16q0 8 -11.5 29.5t-18.5 30.5q-53 80 -135 125t-177 45 q-154 0 -263 -109.5t-109 -263.5zM276 358q0 62 54.5 108t115.5 46q66 0 66 -31q0 -6 -8 -14q-37 -26 -118.5 -78.5t-90.5 -52.5q-8 0 -13.5 7t-5.5 15zM344 874l82 357q0 9 6 14.5t14 5.5h160q21 0 21 -20l-82 -357q0 -8 -6 -14t-15 -6h-159q-8 0 -14.5 6.5t-6.5 13.5z" />
<glyph unicode="&#xea;" horiz-adv-x="825" d="M74 340q0 154 109 263.5t263 109.5q95 0 177 -45t135 -125q7 -9 18.5 -30.5t11.5 -29.5q0 -9 -10 -16l-387 -254q-10 -5 -10 -12q0 -33 65 -33q41 0 73.5 16.5t48 36.5t29 36.5t21.5 16.5q4 0 79 -24t81 -27q9 -4 11 -7.5t2 -14.5v-4q-39 -102 -137 -165t-210 -63 q-152 0 -261 108.5t-109 262.5zM137 872l205 357q4 7 5.5 9.5t5 5.5t7 4t9.5 1h153q11 0 15.5 -4t11.5 -16l205 -357q0 -20 -21 -20h-158q-2 0 -4 0.5t-3.5 1t-3 2l-2.5 2.5t-2.5 3t-2 3.5t-2 4t-2.5 3.5q-22 38 -44.5 83t-34.5 71l-11 25q-6 10 -16 9.5t-15 -9.5 q-43 -91 -94 -179q-12 -20 -23 -20h-157q-21 0 -21 20zM276 358q0 -8 5.5 -15t13.5 -7q9 0 90.5 52.5t118.5 78.5q8 8 8 14q0 31 -66 31q-61 0 -115.5 -46t-54.5 -108z" />
<glyph unicode="&#xeb;" horiz-adv-x="851" d="M74 340q0 -154 109 -262.5t261 -108.5q112 0 210 63t137 165v4q0 11 -2 14.5t-11 7.5q-6 3 -81 27t-79 24q-8 0 -21.5 -16.5t-29 -36.5t-48 -36.5t-73.5 -16.5q-65 0 -65 33q0 7 10 12l387 254q10 7 10 16q0 8 -11.5 29.5t-18.5 30.5q-53 80 -135 125t-177 45 q-154 0 -263 -109.5t-109 -263.5zM213 877v170q0 8 5.5 14t14.5 6h160q8 0 14.5 -6.5t6.5 -13.5v-170q0 -9 -6.5 -15t-14.5 -6h-160q-20 0 -20 21zM276 358q0 62 54.5 108t115.5 46q66 0 66 -31q0 -6 -8 -14q-37 -26 -118.5 -78.5t-90.5 -52.5q-8 0 -13.5 7t-5.5 15z M500 877v170q0 8 5.5 14t14.5 6h160q8 0 14 -6.5t6 -13.5v-170q0 -9 -6 -15t-14 -6h-160q-20 0 -20 21z" />
<glyph unicode="&#xec;" horiz-adv-x="362" d="M-2 1231q0 20 18 20h160q21 0 21 -20l82 -357q0 -8 -6 -14t-15 -6h-160q-8 0 -14 6t-6 14zM82 20q0 -20 20 -20h160q8 0 14.5 5.5t6.5 14.5v642q0 9 -6.5 14.5t-14.5 5.5h-160q-20 0 -20 -20v-642z" />
<glyph unicode="&#xed;" horiz-adv-x="368" d="M78 874l82 357q0 9 6 14.5t14 5.5h160q20 0 20 -20l-81 -357q0 -8 -6 -14t-15 -6h-160q-8 0 -14 6t-6 14zM82 20v642q0 20 20 20h160q8 0 14.5 -5.5t6.5 -14.5v-642q0 -9 -6.5 -14.5t-14.5 -5.5h-160q-20 0 -20 20z" />
<glyph unicode="&#xee;" horiz-adv-x="454" d="M-127 872l203 357q10 17 17 19q4 1 9 1h154q11 0 15.5 -4t11.5 -16l204 -357q0 -20 -20 -20h-158q-2 0 -4 0.5t-3.5 1t-3 2l-2.5 2.5t-2.5 3t-2 3.5t-2 4t-2.5 3.5q-22 38 -44.5 83t-34.5 71l-11 25q-6 10 -16 9.5t-15 -9.5q-43 -91 -94 -179q-12 -20 -23 -20h-155 q-21 0 -21 20zM82 20q0 -20 20 -20h160q8 0 14.5 5.5t6.5 14.5v642q0 9 -6.5 14.5t-14.5 5.5h-160q-20 0 -20 -20v-642z" />
<glyph unicode="&#xef;" horiz-adv-x="397" d="M-59 874v170q0 21 20 21h158q8 0 14 -6t6 -15v-170q0 -8 -6.5 -14t-13.5 -6h-158q-9 0 -14.5 6t-5.5 14zM82 20v642q0 20 20 20h160q8 0 14.5 -5.5t6.5 -14.5v-642q0 -9 -6.5 -14.5t-14.5 -5.5h-160q-20 0 -20 20zM225 874v170q0 9 6 15t15 6h160q8 0 14 -6t6 -15v-170 q0 -8 -6 -14t-14 -6h-160q-9 0 -15 6t-6 14z" />
<glyph unicode="&#xf0;" />
<glyph unicode="&#xf1;" horiz-adv-x="892" d="M70 866q15 41 27 69t34 65.5t44 60t54.5 39t69.5 16.5q53 0 143.5 -47t137.5 -47q84 0 135 100l84 -45q-20 -50 -39.5 -86.5t-49 -77.5t-67.5 -63.5t-82 -22.5q-42 0 -94.5 23.5t-101 47.5t-80.5 24q-36 0 -70.5 -25.5t-60.5 -73.5zM82 20q0 -20 20 -20h160q8 0 14.5 5.5 t6.5 14.5v320q0 71 50 121.5t120 50.5t120 -50.5t50 -121.5v-320q0 -9 6 -14.5t14 -5.5h160q20 0 20 20v320q0 154 -108.5 263.5t-261.5 109.5q-91 0 -172 -43q-4 12 -19 12h-160q-9 0 -14.5 -6t-5.5 -14v-642zM82 20q0 -20 20 -20h160q8 0 14.5 5.5t6.5 14.5h-201z" />
<glyph unicode="&#xf2;" horiz-adv-x="860" d="M76 342q0 -155 107.5 -263t260.5 -108q154 0 261.5 108t107.5 263q0 154 -107.5 262.5t-261.5 108.5q-152 0 -260 -108.5t-108 -262.5zM276 342q0 70 49.5 120t118.5 50q70 0 120 -50t50 -120q0 -71 -50 -121.5t-120 -50.5q-69 0 -118.5 50.5t-49.5 121.5zM283 1231 q0 9 6 14.5t14 5.5h160q20 0 20 -20l82 -357q0 -8 -5.5 -14t-14.5 -6h-160q-7 0 -13.5 6t-6.5 14z" />
<glyph unicode="&#xf3;" horiz-adv-x="868" d="M76 342q0 154 108 262.5t260 108.5q154 0 261.5 -108.5t107.5 -262.5q0 -155 -107.5 -263t-261.5 -108q-153 0 -260.5 108t-107.5 263zM276 342q0 -71 49.5 -121.5t118.5 -50.5q70 0 120 50.5t50 121.5q0 70 -50 120t-120 50q-69 0 -118.5 -50t-49.5 -120zM344 874 l82 357q0 9 6 14.5t14 5.5h160q21 0 21 -20l-82 -357q0 -8 -6 -14t-15 -6h-159q-8 0 -14.5 6.5t-6.5 13.5z" />
<glyph unicode="&#xf4;" horiz-adv-x="870" d="M76 342q0 -155 107.5 -263t260.5 -108q154 0 261.5 108t107.5 263q0 154 -107.5 262.5t-261.5 108.5q-152 0 -260 -108.5t-108 -262.5zM137 872l205 357q4 7 5.5 9.5t5 5.5t7 4t9.5 1h153q11 0 15.5 -4t11.5 -16l205 -357q0 -20 -21 -20h-158q-2 0 -4 0.5t-3.5 1t-3 2 l-2.5 2.5t-2.5 3t-2 3.5t-2 4t-2.5 3.5q-22 38 -44.5 83t-34.5 71l-11 25q-6 10 -16 9.5t-15 -9.5q-43 -91 -94 -179q-12 -20 -23 -20h-157q-21 0 -21 20zM276 342q0 70 49.5 120t118.5 50q70 0 120 -50t50 -120q0 -71 -50 -121.5t-120 -50.5q-69 0 -118.5 50.5t-49.5 121.5 z" />
<glyph unicode="&#xf5;" horiz-adv-x="874" d="M76 342q0 154 108 262.5t260 108.5q154 0 261.5 -108.5t107.5 -262.5q0 -155 -107.5 -263t-261.5 -108q-153 0 -260.5 108t-107.5 263zM93.5 896.5q-0.5 3.5 3.5 14.5q0 2 1 4q17 46 34.5 81t44.5 72t63 57t79 20q53 0 141.5 -47t135.5 -47q72 0 125 86q4 7 5.5 8 t14.5 -4l58 -29q8 -4 8.5 -9t-4.5 -18q-17 -46 -34.5 -81t-44.5 -71.5t-63 -56.5t-79 -20q-42 0 -95 23.5t-101.5 47t-80.5 23.5q-72 0 -125 -86q-4 -7 -5.5 -8t-14.5 4l-58 29q-8 4 -8.5 7.5zM276 342q0 -71 49.5 -121.5t118.5 -50.5q70 0 120 50.5t50 121.5q0 70 -50 120 t-120 50q-69 0 -118.5 -50t-49.5 -120z" />
<glyph unicode="&#xf6;" horiz-adv-x="870" d="M76 342q0 154 108 262.5t260 108.5q154 0 261.5 -108.5t107.5 -262.5q0 -155 -107.5 -263t-261.5 -108q-153 0 -260.5 108t-107.5 263zM213 877v170q0 8 5.5 14t14.5 6h160q8 0 14.5 -6.5t6.5 -13.5v-170q0 -9 -6.5 -15t-14.5 -6h-160q-20 0 -20 21zM276 342 q0 -71 49.5 -121.5t118.5 -50.5q70 0 120 50.5t50 121.5q0 70 -50 120t-120 50q-69 0 -118.5 -50t-49.5 -120zM500 877v170q0 8 5.5 14t14.5 6h160q8 0 14 -6.5t6 -13.5v-170q0 -9 -6 -15t-14 -6h-160q-20 0 -20 21z" />
<glyph unicode="&#xf7;" />
<glyph unicode="&#xf8;" horiz-adv-x="888" d="M47 -8l100 123q-71 93 -71 227q0 154 108 262.5t260 108.5q84 0 156 -35q23 35 33 35h164q20 0 20 -21q-35 -44 -88 -114q84 -100 84 -236q0 -154 -107.5 -262.5t-261.5 -108.5q-79 0 -165 35q-1 -1 -8.5 -9t-12 -12.5t-12.5 -9t-15 -4.5h-163q-8 0 -14.5 6.5t-6.5 14.5z M276 342q0 -31 9 -55l180 223q-6 2 -21 2q-69 0 -118.5 -50t-49.5 -120zM414 174q20 -4 30 -4q70 0 120 50.5t50 121.5q0 30 -14 70q-17 -22 -186 -238z" />
<glyph unicode="&#xf9;" horiz-adv-x="890" d="M88 342q0 -154 108.5 -262.5t262.5 -108.5q17 0 34.5 2t38 7.5t31.5 9t36 12t32 10.5q4 1 9 -5.5t9 -6.5h160q9 0 14.5 6t5.5 14v642q0 20 -20 20h-160q-8 0 -14 -5.5t-6 -14.5v-320q0 -71 -50 -121.5t-120 -50.5t-120 50.5t-50 121.5v320q0 9 -6.5 14.5t-14.5 5.5h-159 q-21 0 -21 -20v-320zM303 1231q0 9 6.5 14.5t14.5 5.5h159q21 0 21 -20l82 -357q0 -8 -6 -14t-15 -6h-159q-8 0 -14.5 6.5t-6.5 13.5zM649 682h160h-160z" />
<glyph unicode="&#xfa;" horiz-adv-x="890" d="M88 342v320q0 20 21 20h159q8 0 14.5 -5.5t6.5 -14.5v-320q0 -71 50 -121.5t120 -50.5t120 50.5t50 121.5v320q0 9 6 14.5t14 5.5h160q20 0 20 -20v-642q0 -8 -5.5 -14t-14.5 -6h-160q-10 0 -18 12q-84 -41 -172 -41q-154 0 -262.5 108.5t-108.5 262.5zM344 874l82 357 q0 9 6 14.5t14 5.5h160q21 0 21 -20l-82 -357q0 -8 -6 -14t-15 -6h-159q-8 0 -14.5 6.5t-6.5 13.5zM649 682h160h-160z" />
<glyph unicode="&#xfb;" horiz-adv-x="925" d="M88 342q0 -154 108.5 -262.5t262.5 -108.5q88 0 172 41q8 -12 18 -12h160q9 0 14.5 6t5.5 14v642q0 20 -20 20h-160q-8 0 -14 -5.5t-6 -14.5v-320q0 -71 -50 -121.5t-120 -50.5t-120 50.5t-50 121.5v320q0 9 -6.5 14.5t-14.5 5.5h-159q-21 0 -21 -20v-320zM158 872 l204 357q4 7 5.5 9.5t5 5.5t7 4t9.5 1h154q6 0 9.5 -0.5t7 -4.5t4 -5.5t5.5 -9.5l205 -357q0 -20 -20 -20h-158q-11 0 -23 20q-22 38 -44.5 83t-34.5 71l-11 25q-6 10 -15.5 9.5t-14.5 -9.5q-44 -91 -95 -179q-1 -1 -2 -4q-10 -16 -20 -16h-158q-20 0 -20 20zM649 682h160 h-160z" />
<glyph unicode="&#xfc;" horiz-adv-x="903" d="M88 342v320q0 20 21 20h159q8 0 14.5 -5.5t6.5 -14.5v-320q0 -71 50 -121.5t120 -50.5t120 50.5t50 121.5v320q0 9 6 14.5t14 5.5h160q20 0 20 -20v-642q0 -8 -5.5 -14t-14.5 -6h-160q-10 0 -18 12q-84 -41 -172 -41q-154 0 -262.5 108.5t-108.5 262.5zM213 877v170 q0 8 5.5 14t14.5 6h160q8 0 14.5 -6.5t6.5 -13.5v-170q0 -9 -6.5 -15t-14.5 -6h-160q-20 0 -20 21zM500 877v170q0 8 5.5 14t14.5 6h160q8 0 14 -6.5t6 -13.5v-170q0 -9 -6 -15t-14 -6h-160q-20 0 -20 21zM649 682h160h-160z" />
<glyph unicode="&#xfd;" horiz-adv-x="872" d="M80 664l256 -637q3 -9 0 -17l-242 -596q-4 -9 2 -17.5t17 -8.5h172q14 0 20 12l508 1264q3 7 -0.5 12.5t-11.5 5.5h-178q-22 0 -29 -18l-129 -324q-3 -8 -10 -12q-7 -3 -15.5 0.5t-11.5 11.5l-129 324q-3 7 -12 12.5t-17 5.5h-178q-8 0 -11.5 -5.5t-0.5 -12.5zM344 874 l82 357q0 9 6 14.5t14 5.5h160q21 0 21 -20l-82 -357q0 -8 -6 -14t-15 -6h-159q-8 0 -14.5 6.5t-6.5 13.5z" />
<glyph unicode="&#xfe;" horiz-adv-x="854" d="M84 20v642v471q0 9 6 14.5t14 5.5h162q8 0 14.5 -5.5t6.5 -14.5v-461q77 41 170 41q154 0 263 -108.5t109 -262.5v-2q0 -153 -109 -261t-263 -108q-90 0 -170 39v-459q0 -9 -6.5 -14.5t-14.5 -5.5h-162q-8 0 -14 5.5t-6 14.5v469zM287 340q0 -70 49.5 -120t120.5 -50 t121.5 50t50.5 120v2q0 70 -50.5 120t-121.5 50t-120.5 -50t-49.5 -120v-2z" />
<glyph unicode="&#xff;" horiz-adv-x="878" d="M80 664l256 -637q3 -9 0 -17l-242 -596q-4 -9 2 -17.5t17 -8.5h172q14 0 20 12l508 1264q3 7 -0.5 12.5t-11.5 5.5h-178q-22 0 -29 -18l-129 -324q-3 -8 -10 -12q-7 -3 -15.5 0.5t-11.5 11.5l-129 324q-3 7 -12 12.5t-17 5.5h-178q-8 0 -11.5 -5.5t-0.5 -12.5zM213 877 v170q0 8 5.5 14t14.5 6h160q8 0 14.5 -6.5t6.5 -13.5v-170q0 -9 -6.5 -15t-14.5 -6h-160q-20 0 -20 21zM500 877v170q0 8 5.5 14t14.5 6h160q8 0 14 -6.5t6 -13.5v-170q0 -9 -6 -15t-14 -6h-160q-20 0 -20 21z" />
<glyph unicode="&#x152;" horiz-adv-x="1327" d="M80 328v676q0 148 105 253t253 105q87 0 160 -39q8 8 14 8h72h92h502q8 0 14 -6.5t6 -13.5v-164q0 -9 -6 -15t-14 -6h-461q-7 0 -13.5 -6t-6.5 -14l2 -502q0 -8 6.5 -14t13.5 -6h336q9 0 15 -6t6 -15v-164q0 -8 -6 -14t-15 -6h-336q-8 0 -14 -6t-6 -15l-2 -133 q0 -7 6.5 -13.5t13.5 -6.5h461q8 0 14 -6t6 -15v-164q0 -8 -6 -14t-14 -6h-502h-92h-72l-12 8q-79 -37 -162 -37q-148 0 -253 104.5t-105 252.5zM285 328q0 -63 45 -108.5t108 -45.5t108.5 45.5t45.5 108.5v676q0 63 -45.5 108t-108.5 45t-108 -45t-45 -108v-676z" />
<glyph unicode="&#x153;" horiz-adv-x="1392" d="M74 342q0 153 107.5 262t260.5 109q77 0 148 -31t123 -88q110 119 270 119q95 0 177.5 -45t135.5 -125q8 -10 19.5 -31t11.5 -29q0 -9 -10 -16l-389 -254q-8 -4 -8 -12q0 -33 65 -33q41 0 73 16.5t47.5 36.5t29 36.5t20.5 16.5q6 0 80.5 -23.5t81.5 -27.5q12 -7 12 -22 v-4q-41 -103 -137.5 -165.5t-208.5 -62.5q-159 0 -272 119q-50 -56 -121 -86.5t-148 -30.5q-153 0 -260.5 108.5t-107.5 262.5zM274 342q0 -71 49 -121.5t119 -50.5t120 50.5t50 121.5q0 69 -50 119.5t-120 50.5t-119 -50t-49 -120zM815 358q0 -8 5.5 -15t13.5 -7t99.5 58.5 t106.5 72.5q11 7 11 14q0 31 -66 31q-62 0 -116 -46.5t-54 -107.5z" />
<glyph unicode="&#x178;" horiz-adv-x="1009" d="M57 1305l406 -656q2 -4 2 -10v-619q0 -9 6 -14.5t14 -5.5h164q21 0 21 20v619q0 6 4 10l405 656q3 9 -2.5 17.5t-15.5 8.5h-193q-11 0 -20 -14l-262 -408q-6 -9 -17.5 -9.5t-17.5 9.5l-262 408q-7 14 -25 14h-186q-10 0 -17 -8.5t-4 -17.5zM330 1454v170q0 8 5.5 14.5 t14.5 6.5h160q7 0 13.5 -6.5t6.5 -14.5v-170q0 -9 -6 -14.5t-14 -5.5h-160q-20 0 -20 20zM616 1454v170q0 8 6 14.5t15 6.5h160q7 0 13.5 -6.5t6.5 -14.5v-170q0 -9 -6 -14.5t-14 -5.5h-160q-21 0 -21 20z" />
<glyph unicode="&#x2dc;" horiz-adv-x="774" d="M114.5 1482.5q-0.5 3.5 3.5 14.5q0 2 1 4q17 46 34.5 81t44.5 72t63 57t79 20q53 0 141 -47.5t135 -47.5q72 0 125 86q4 7 6 8t15 -4l57 -28q8 -4 8.5 -9t-4.5 -18q-17 -46 -34.5 -81t-44.5 -71.5t-63 -56.5t-79 -20q-42 0 -94.5 23.5t-101 47t-80.5 23.5q-72 0 -125 -86 q-4 -7 -6 -8t-15 4l-57 29q-8 4 -8.5 7.5z" />
<glyph unicode="&#x2000;" horiz-adv-x="958" />
<glyph unicode="&#x2001;" horiz-adv-x="1917" />
<glyph unicode="&#x2002;" horiz-adv-x="958" />
<glyph unicode="&#x2003;" horiz-adv-x="1917" />
<glyph unicode="&#x2004;" horiz-adv-x="639" />
<glyph unicode="&#x2005;" horiz-adv-x="479" />
<glyph unicode="&#x2006;" horiz-adv-x="319" />
<glyph unicode="&#x2007;" horiz-adv-x="319" />
<glyph unicode="&#x2008;" horiz-adv-x="239" />
<glyph unicode="&#x2009;" horiz-adv-x="383" />
<glyph unicode="&#x200a;" horiz-adv-x="106" />
<glyph unicode="&#x2010;" horiz-adv-x="872" d="M104 248v166q0 20 21 20h649q21 0 21 -20v-166q0 -9 -6 -15t-15 -6h-649q-9 0 -15 6t-6 15z" />
<glyph unicode="&#x2011;" horiz-adv-x="872" d="M104 248v166q0 20 21 20h649q21 0 21 -20v-166q0 -9 -6 -15t-15 -6h-649q-9 0 -15 6t-6 15z" />
<glyph unicode="&#x2012;" horiz-adv-x="872" d="M104 248v166q0 20 21 20h649q21 0 21 -20v-166q0 -9 -6 -15t-15 -6h-649q-9 0 -15 6t-6 15z" />
<glyph unicode="&#x2013;" horiz-adv-x="1205" d="M104 248v166q0 20 31 20h962q31 0 31 -20v-166q0 -9 -9 -15t-22 -6h-962q-13 0 -22 6t-9 15z" />
<glyph unicode="&#x2014;" horiz-adv-x="2229" d="M104 248v166q0 20 62 20h1924q62 0 62 -20v-166q0 -9 -18 -15t-44 -6h-1924q-26 0 -44 6t-18 15z" />
<glyph unicode="&#x2019;" />
<glyph unicode="&#x201c;" />
<glyph unicode="&#x2022;" />
<glyph unicode="&#x202f;" horiz-adv-x="383" />
<glyph unicode="&#x2039;" />
<glyph unicode="&#x203a;" />
<glyph unicode="&#x205f;" horiz-adv-x="479" />
<glyph unicode="&#x20ac;" horiz-adv-x="876" d="M-78 416v162q0 9 6.5 14.5t14.5 5.5h108v137h-108q-8 0 -14.5 6t-6.5 15v162q0 9 6.5 14.5t14.5 5.5h108v74q0 146 114.5 248t276.5 102q156 0 270.5 -95.5t123.5 -232.5q0 -18 -23 -22h-180q-19 0 -23 18q-8 56 -55 94.5t-111 38.5q-70 0 -119 -43.5t-49 -105.5v-76h299 q21 -8 21 -20v-162q0 -9 -6 -15t-15 -6h-299v-137h299q21 -8 21 -20v-162q0 -9 -6 -15t-15 -6h-299v-76q0 -63 49 -107t119 -44q64 0 111 38.5t55 94.5q4 18 23 18h180q9 0 16 -6t7 -14q-9 -138 -123 -233t-271 -95q-162 0 -276.5 102t-114.5 246v76h-108q-8 0 -14.5 6 t-6.5 15z" />
<glyph unicode="&#x25fc;" horiz-adv-x="686" d="M0 0v686h686v-686h-686z" />
</font>
</defs>
</svg>
